<svg xmlns="http://www.w3.org/2000/svg" viewBox="112 29 1844 1032" role="img" aria-label="GSYEN vintage carriage logo light">
  <title>GSYEN vintage carriage logo light</title>
  
  <g transform="scale(4)"><path fill="#C09F5C" fill-rule="evenodd" d="M 56.197 119.091 C 56.763 120.790, 91.364 134.992, 94.950 134.998 C 98.133 135.003, 93.773 132.855, 75.819 125.575 C 55.919 117.506, 55.638 117.413, 56.197 119.091 M 107.957 131.631 C 106.585 135.786, 107.077 149.528, 108.701 152.429 C 109.715 154.242, 109.808 154.228, 110.955 152.084 C 113.246 147.803, 112.487 128, 110.032 128 C 109.550 128, 108.616 129.634, 107.957 131.631 M 49 134.802 C 49 136.981, 61.058 138.326, 61.758 136.225 C 62.016 135.452, 61.121 134.996, 59.333 134.989 C 57.775 134.983, 54.813 134.699, 52.750 134.358 C 50.379 133.966, 49 134.129, 49 134.802 M 63.500 136.814 C 65.275 138.677, 94.777 141.174, 95.230 139.500 C 95.548 138.322, 89.772 137.505, 74 136.499 C 65.985 135.987, 62.803 136.083, 63.500 136.814 M 80.500 144.526 C 79.950 144.729, 73.890 145.600, 67.034 146.463 C 60.177 147.326, 54.102 148.532, 53.534 149.144 C 52.554 150.197, 57.979 149.948, 66 148.571 C 67.375 148.335, 73.225 147.652, 79 147.054 C 93.351 145.566, 97.928 144.174, 88.500 144.165 C 84.650 144.161, 81.050 144.324, 80.500 144.526 M 75.540 155.546 C 59.554 161.648, 54.673 164, 57.996 164 C 59.815 164, 94.209 151.037, 95.450 149.883 C 97.819 147.681, 91.253 149.548, 75.540 155.546"/></g>
  <path fill="#F1F1F1" fill-rule="evenodd" d="M 1309.500 114.148 C 1279.487 114.869, 1249.653 116.413, 1234.485 118.031 C 1228.993 118.617, 1220 119.535, 1214.500 120.072 C 1203.770 121.120, 1204.030 121.088, 1181.500 124.102 C 1127.498 131.328, 1097.610 136.959, 1067.500 145.582 C 1062.550 146.999, 1056.475 148.729, 1054 149.427 C 1042.086 152.784, 1036.679 158.324, 1038.607 165.197 C 1039.271 167.565, 1040.582 169.015, 1043.235 170.317 C 1047.277 172.301, 1048.751 172.163, 1078.500 166.999 C 1084.550 165.948, 1092.650 164.800, 1096.500 164.446 C 1100.350 164.093, 1105.300 163.425, 1107.500 162.962 C 1109.700 162.499, 1117.350 161.634, 1124.500 161.039 C 1131.650 160.444, 1144.925 159.309, 1154 158.517 C 1163.075 157.726, 1179.050 156.569, 1189.500 155.948 C 1199.950 155.326, 1215.025 154.431, 1223 153.959 C 1274.286 150.920, 1364.980 151.924, 1403 155.951 C 1468.148 162.851, 1497.080 172.468, 1528.388 197.632 C 1556.880 220.531, 1570.269 262.477, 1562.341 304 C 1552.703 354.481, 1518.174 399.304, 1476.500 415.434 C 1472.650 416.924, 1466.155 419.509, 1462.066 421.177 C 1457.977 422.846, 1450.871 424.820, 1446.276 425.564 C 1441.681 426.308, 1436.148 427.913, 1433.980 429.131 C 1430.146 431.286, 1429.985 431.296, 1428.008 429.507 C 1425.984 427.676, 1425.978 427.196, 1426.238 305.870 C 1426.485 190.913, 1426.599 183.972, 1428.269 182.303 C 1429.641 180.931, 1430.426 180.779, 1431.769 181.626 C 1433.392 182.650, 1433.516 190.074, 1433.754 300.740 C 1433.976 403.691, 1434.198 418.919, 1435.493 419.994 C 1439.081 422.972, 1472.090 410.737, 1490 399.791 C 1520.021 381.443, 1543.632 348.212, 1553.086 311 C 1555.966 299.667, 1556.588 269.395, 1554.166 258.500 C 1542.905 207.841, 1504.822 179.078, 1434.500 168.120 C 1384.534 160.335, 1286.263 158.146, 1207.500 163.065 C 1158.145 166.147, 1106.632 170.344, 1092.500 172.436 C 1087 173.249, 1079.475 174.210, 1075.778 174.571 C 1068.599 175.272, 1066.652 176.537, 1067.173 180.162 C 1067.495 182.398, 1068.565 183.125, 1076.500 186.495 C 1081.646 188.680, 1092.813 196.095, 1095.872 199.359 C 1097.977 201.604, 1098.170 202.487, 1097.581 207.197 C 1096.787 213.554, 1097.850 215.385, 1103.395 217.215 C 1109.201 219.130, 1109.981 222.320, 1105.631 226.358 C 1099.870 231.707, 1100.116 234.854, 1106.588 238.610 C 1108.453 239.692, 1108.497 242.346, 1108.368 347.365 C 1108.265 431.414, 1107.964 455.338, 1106.996 456.505 C 1106.159 457.513, 1103.890 458, 1100.033 458 C 1095.759 458, 1093.891 458.463, 1092.655 459.829 C 1090.840 461.834, 1090.411 467.518, 1092 468.500 C 1094.525 470.061, 1091.970 473.559, 1077.750 488.012 C 1063.485 502.511, 1043.426 524.858, 1034.673 536.004 C 1028.149 544.311, 1028.153 544.333, 1027.807 504.165 L 1027.500 468.500 1023.249 460.795 C 1020.911 456.557, 1018.346 450.296, 1017.549 446.881 C 1015.791 439.342, 1014.999 438.508, 1008 436.824 C 1001.255 435.200, 1000.555 433.093, 1004.930 427.588 C 1012.464 418.108, 1008.094 404.761, 996.969 403.269 C 984.399 401.583, 976.643 416.751, 984.852 426.966 C 990.517 434.015, 989.409 435.384, 977.443 436.112 C 971.911 436.448, 966.314 437.297, 965.006 437.997 C 962.201 439.498, 951.265 438.964, 923 435.944 C 894.214 432.869, 773.957 428.859, 753.600 430.296 C 744.533 430.936, 742 429.850, 742 425.326 C 742 421.546, 738.709 419.894, 729.504 419.055 C 716.975 417.913, 715.043 415.014, 723.093 409.436 C 727.103 406.657, 728.731 403.349, 727.574 400.332 C 726.785 398.277, 728.573 397.036, 732.350 397.015 C 735.805 396.997, 742 391.241, 742 388.050 C 742 384.616, 739.211 380.160, 736.033 378.517 C 733.605 377.262, 728.015 377, 703.626 377 C 674.153 377, 674.153 377, 671.111 379.560 C 665.022 384.683, 666.131 391.936, 673.539 395.452 C 677.052 397.118, 677.494 397.118, 682.786 395.454 C 687.741 393.895, 689.964 393.820, 703.279 394.760 C 727.920 396.500, 725.076 400.305, 699.443 399.894 C 683.540 399.638, 682 399.922, 682 403.109 C 682 409.251, 686.732 413, 694.483 413 C 699.773 413, 702 413.767, 702 415.588 C 702 417.409, 699.781 417.778, 685.126 418.394 C 670.120 419.024, 668.444 419.930, 669.399 426.894 C 670.378 434.037, 670.495 434, 646.812 434 C 625.242 434, 623.870 434.221, 619.724 438.367 C 617.802 440.289, 616.003 440.783, 609.226 441.247 C 598.996 441.948, 597.410 442.907, 584.479 456.214 C 574.220 466.772, 569.934 473.102, 566.150 483.288 C 564.033 488.987, 564 490.050, 564 552.915 C 564 624.347, 563.503 619.815, 571.139 618.054 C 573.537 617.501, 580.057 617.038, 585.628 617.024 C 593.388 617.006, 596.046 616.649, 597 615.500 C 598.640 613.524, 602.887 613.588, 605.135 615.622 C 606.385 616.754, 609.431 617.368, 615.214 617.654 C 643.926 619.075, 677.282 628.303, 710 643.878 C 741.226 658.742, 782.372 695.304, 812.149 734.649 C 823.160 749.198, 857.787 787.006, 869.395 797.154 C 877.647 804.368, 885.143 809.791, 899.500 818.932 C 918.143 830.802, 939.788 838.309, 967.505 842.515 C 993.242 846.422, 996.668 846.017, 995.750 839.174 C 995.384 836.447, 995.700 834.445, 996.727 832.980 C 998.244 830.814, 998.244 830.814, 1177.872 831.019 C 1276.667 831.133, 1358.254 831.174, 1359.175 831.113 C 1360.096 831.051, 1363.633 828.285, 1367.035 824.966 C 1372.409 819.723, 1373.139 818.576, 1372.599 816.216 C 1371.290 810.491, 1370.729 756.551, 1371.870 746.183 C 1375.205 715.892, 1387.921 681.311, 1405.279 655.331 C 1431.224 616.498, 1456.384 594.320, 1496.399 575.010 C 1550.566 548.870, 1616.786 550.035, 1673.415 578.123 C 1686.749 584.737, 1710.443 602.129, 1726.194 616.862 C 1732.879 623.116, 1734.725 623.816, 1739.626 621.952 C 1746.741 619.247, 1760.710 620.646, 1774.851 625.480 C 1790.500 630.829, 1793.757 632.897, 1804.644 644.397 C 1813.483 653.734, 1817.538 655.378, 1821.345 651.171 C 1831.273 640.201, 1787.017 583.509, 1748.491 557.845 C 1726.531 543.217, 1689.299 526.914, 1662.072 520.005 C 1632.771 512.570, 1581.771 510.541, 1549 515.507 C 1506.204 521.991, 1468.155 538.795, 1434.500 566.073 C 1411.992 584.316, 1398.817 599.930, 1379.291 631.500 C 1371.274 644.462, 1362.226 663.106, 1355.509 680.500 C 1352.960 687.100, 1350.457 693.525, 1349.946 694.779 C 1348.805 697.577, 1340.703 729.712, 1338.545 740 C 1335.787 753.149, 1332 786.681, 1332 797.959 C 1332 812.936, 1332.984 812.258, 1311.889 811.832 C 1301.945 811.631, 1294.663 811.063, 1294.041 810.441 C 1293.463 809.863, 1292.749 806.402, 1292.455 802.751 C 1291.768 794.214, 1292.423 793.803, 1305.129 794.780 C 1314.500 795.500, 1314.500 795.500, 1316.232 798.971 C 1318.017 802.548, 1320.838 804.336, 1322.791 803.129 C 1323.493 802.695, 1324.062 796.930, 1324.336 787.471 C 1324.829 770.477, 1329.975 734.332, 1332.946 727 C 1333.949 724.525, 1335.295 719.400, 1335.938 715.612 C 1339.518 694.511, 1355.154 655.458, 1369.815 631 C 1415.603 554.613, 1479.760 513.192, 1565 504.986 C 1577.656 503.768, 1612.782 503.791, 1621.308 505.024 C 1631.995 506.569, 1632.011 506.546, 1631.942 490.715 C 1631.911 483.447, 1631.566 475.705, 1631.177 473.511 C 1629.577 464.489, 1623.260 469.449, 1617.699 484.093 C 1615.762 489.192, 1611.824 492.224, 1609.785 490.185 C 1608.364 488.764, 1608.594 475.332, 1610.139 469.527 C 1610.721 467.342, 1612.278 464.270, 1613.599 462.701 C 1616.326 459.459, 1616.738 454.858, 1614.469 452.974 C 1613.212 451.931, 1611.377 452.174, 1604.219 454.332 C 1574.920 463.164, 1536.784 466.947, 1467.500 467.893 C 1440.550 468.261, 1417.934 468.386, 1417.241 468.171 C 1415.492 467.627, 1414.496 463.023, 1415.711 461.095 C 1416.603 459.679, 1422.886 459.429, 1471.608 458.869 C 1501.799 458.521, 1530.775 457.749, 1536 457.152 C 1541.225 456.555, 1549.550 455.621, 1554.500 455.075 C 1582.752 451.961, 1591.095 450.857, 1596.500 449.518 C 1599.800 448.700, 1603.659 448.024, 1605.076 448.016 C 1606.492 448.007, 1608.576 446.988, 1609.707 445.750 C 1611.929 443.318, 1613.121 395.494, 1614.867 238.668 C 1615.476 183.954, 1615.572 181.784, 1617.441 180.418 C 1618.509 179.638, 1620.442 179, 1621.737 179 C 1625.366 179, 1629 174.745, 1629 170.496 C 1629 159.592, 1618.095 152.648, 1584.500 142.160 C 1520.290 122.113, 1416.798 111.571, 1309.500 114.148 M 1162 198.062 C 1158.425 198.585, 1151.900 199.138, 1147.500 199.290 C 1143.100 199.443, 1138.938 199.917, 1138.250 200.343 C 1136.077 201.690, 1136.891 204.786, 1140 207 C 1143.873 209.758, 1143.844 212.814, 1139.913 216.263 L 1136.827 218.972 1137.115 337.736 C 1137.273 403.056, 1137.778 457.288, 1138.237 458.250 C 1139.859 461.656, 1150.564 459.827, 1153.303 455.675 C 1154.852 453.329, 1167.201 438.598, 1184 419.057 C 1200.666 399.672, 1201.198 398.928, 1200.478 396.041 C 1200.129 394.644, 1199.257 392.825, 1198.539 392 C 1194.388 387.231, 1192.741 381.612, 1192.866 372.638 C 1192.990 363.703, 1192.990 363.703, 1185.722 356.601 C 1172.800 343.977, 1169.875 338.629, 1172.481 332.392 C 1174.717 327.039, 1179.558 325.213, 1184.583 327.827 C 1192.028 331.700, 1219.677 356.781, 1254.776 391.498 C 1285.650 422.037, 1287.691 425.378, 1279.440 431.869 C 1273.634 436.436, 1266.680 434.182, 1255.963 424.259 C 1249.167 417.968, 1248.807 417.777, 1245.216 418.560 C 1237.039 420.343, 1230.792 419.667, 1223.853 416.250 C 1220.224 414.463, 1216.567 413, 1215.728 413 C 1214.039 413, 1207.231 420.154, 1197.793 431.847 C 1194.395 436.056, 1188.327 443.228, 1184.308 447.784 C 1176.821 456.271, 1176.185 457.378, 1178.111 458.568 C 1179.985 459.727, 1391.886 459.132, 1394.071 457.962 C 1395.960 456.951, 1396 454.403, 1396 334.933 C 1396 202.155, 1396.257 208.180, 1390.433 204.364 C 1388.929 203.378, 1385.404 202.265, 1382.599 201.889 C 1379.795 201.514, 1375.524 200.466, 1373.109 199.560 C 1367.936 197.620, 1174.412 196.247, 1162 198.062 M 973.698 447.677 C 970.249 448.732, 968.630 449.843, 967.955 451.618 C 966.457 455.558, 966.548 690.751, 968.048 692.558 C 969.558 694.377, 971.094 694.383, 973.559 692.581 C 975.461 691.190, 975.500 688.834, 975.500 575.156 C 975.500 459.151, 975.500 459.151, 977.755 456.326 C 982.963 449.802, 983.310 449.079, 981.996 447.495 C 980.535 445.735, 980.008 445.747, 973.698 447.677 M 679 451.140 C 636.711 453.255, 634.757 453.426, 633.696 455.114 C 633.138 456.002, 632.974 457.491, 633.332 458.423 C 633.935 459.994, 636.625 460.062, 669.741 459.351 C 719.531 458.282, 784.654 458.527, 796 459.827 C 811.572 461.611, 843.585 463.497, 857.500 463.451 C 888.155 463.349, 947.054 462.084, 947.986 461.509 C 949.562 460.535, 949.180 456.395, 947.377 454.898 C 946.101 453.839, 936.310 453.394, 901.627 452.818 C 877.357 452.415, 840.175 451.616, 819 451.042 C 775.342 449.858, 703.620 449.909, 679 451.140 M 607.853 453.696 C 599.135 459.105, 597.500 473.952, 597.500 547.707 C 597.500 597.259, 597.621 601.036, 599.269 602.690 C 600.641 604.068, 601.425 604.222, 602.769 603.375 C 604.369 602.366, 604.540 597.760, 605.024 542.392 C 605.618 474.467, 606.034 469.958, 612.639 459.928 C 614.539 457.044, 615.861 454.080, 615.578 453.342 C 614.879 451.521, 611.077 451.695, 607.853 453.696 M 1095.945 474.190 C 1095.914 474.910, 1095.937 480.770, 1095.996 487.212 C 1096.102 498.885, 1096.093 498.932, 1093.301 501.208 C 1083.249 509.402, 1036 559.718, 1036 562.227 C 1036 562.797, 1036.867 564.667, 1037.927 566.382 C 1038.987 568.097, 1040.607 571.750, 1041.527 574.500 C 1049.396 598.013, 1070.062 614.377, 1094.727 616.624 C 1106.147 617.665, 1105.095 624.951, 1104.839 546.602 C 1104.716 509.146, 1104.335 477.375, 1103.992 476 C 1103.287 473.178, 1096.056 471.551, 1095.945 474.190 M 1129.119 478.357 C 1127.719 480.043, 1127.626 705.831, 1129.024 707.524 C 1130.155 708.894, 1219.809 708.433, 1238.368 706.961 C 1246.337 706.330, 1254.986 705.013, 1258.702 703.865 C 1262.258 702.767, 1267.717 701.454, 1270.834 700.949 C 1277.426 699.881, 1290.087 693.863, 1301.568 686.341 C 1313.607 678.454, 1327.531 663.510, 1340.084 645 C 1366.028 606.749, 1381.144 577.732, 1385.989 556.886 C 1387.188 551.724, 1388.547 546.375, 1389.008 545 C 1390.874 539.436, 1394 508.675, 1394 495.883 C 1394 486.437, 1394.967 485.030, 1402.049 484.165 C 1408.052 483.433, 1408.549 482.499, 1404.532 479.500 C 1401.889 477.526, 1400.073 477.496, 1266.072 477.223 C 1150.122 476.986, 1130.119 477.151, 1129.119 478.357 M 449.578 487.634 C 448.169 489.210, 446.135 491.506, 445.059 492.735 C 443.556 494.451, 442.420 494.834, 440.167 494.383 C 432.226 492.795, 424.870 501.326, 419.040 518.884 C 415.209 530.420, 414.499 537.660, 414.518 565 C 414.536 591.161, 414.573 591.628, 417.406 601.500 C 424.002 624.488, 432.718 633.506, 447.697 632.842 C 457.338 632.414, 457.964 633.255, 457.985 646.661 C 458 655.671, 457.949 655.865, 454.923 658.411 C 453.231 659.835, 451.457 661, 450.981 661 C 447.282 661, 426.851 676.454, 424.474 681.050 C 420.036 689.633, 428.505 696.999, 436.115 691.175 C 437.427 690.171, 441.115 687.808, 444.311 685.925 C 447.508 684.041, 451.783 681.495, 453.811 680.266 C 458.817 677.235, 459.368 677.370, 461.579 682.172 C 464.349 688.187, 465.541 688.635, 474.688 687.101 C 483.531 685.618, 483.964 685.238, 483.985 678.950 C 484.014 670.358, 487.484 669.939, 499.171 677.114 C 503.752 679.927, 509.075 683.677, 511 685.448 C 520.936 694.589, 521.576 694.659, 535.269 688.098 C 618.425 648.253, 712.806 685.399, 750.616 772.853 C 758.780 791.737, 763.385 836.409, 758.485 849.180 C 756.863 853.406, 759.344 853.944, 785.500 855.039 C 799.250 855.614, 820.850 856.789, 833.500 857.650 C 890.371 861.520, 960.360 860.012, 966.750 854.779 C 968.501 853.345, 968.308 850.332, 966.418 849.607 C 965.548 849.273, 962.286 848.989, 959.168 848.976 C 956.051 848.963, 951.925 848.543, 950 848.042 C 928.203 842.371, 927.183 842.048, 913.547 836.514 C 905.818 833.378, 900.897 830.934, 891.500 825.564 C 871.479 814.122, 843.837 789.355, 822.749 763.963 C 803.188 740.411, 794.755 730.048, 787.898 721.139 C 776.421 706.228, 753.751 684.422, 739 674.105 C 705.159 650.437, 677.872 637.432, 652.689 632.969 C 649.285 632.366, 643.817 631.189, 640.538 630.354 C 626.916 626.884, 584.775 625.818, 566.689 628.484 C 561.085 629.311, 552.225 630.125, 547 630.295 C 537.882 630.591, 535.533 631.018, 521 635.027 C 498.016 641.366, 490.861 643.194, 490.487 642.821 C 490.255 642.588, 490.568 640.758, 491.183 638.754 C 492.108 635.741, 492.018 634.676, 490.662 632.607 C 488.381 629.126, 489.413 627.385, 494.518 626.100 C 505.939 623.224, 524.996 599.611, 524.999 588.332 C 525 583.196, 525.863 582.143, 530.656 581.424 C 537.964 580.328, 540.500 575.515, 540.500 562.736 C 540.500 552.834, 540.500 552.834, 537.234 549.917 C 535.012 547.932, 532.904 547, 530.639 547 C 526.912 547, 524 544.487, 524 541.271 C 524 540.131, 522.976 537.016, 521.724 534.349 C 514.455 518.860, 502.541 506.546, 492.914 504.574 C 490.727 504.126, 490.143 503.217, 489.126 498.673 C 486.859 488.544, 481.817 485.746, 464.821 485.186 C 452.141 484.768, 452.141 484.768, 449.578 487.634 M 1137.571 486.571 C 1135.454 488.689, 1135.140 696.476, 1137.250 699.277 C 1138.402 700.807, 1142.347 700.863, 1187.500 699.993 C 1249.927 698.790, 1259.836 697.526, 1281 688.065 C 1306.344 676.736, 1322.750 661.532, 1338.671 634.621 C 1369.070 583.237, 1375.099 570.539, 1379.557 548.500 C 1380.447 544.100, 1381.548 538.700, 1382.002 536.500 C 1383.306 530.192, 1385 507.855, 1385 496.981 C 1385 488.206, 1384.778 486.952, 1383.066 486.035 C 1379.488 484.121, 1139.498 484.645, 1137.571 486.571 M 706.547 491.267 C 646.506 491.850, 621.199 492.420, 620.246 493.211 C 619.505 493.826, 619.034 495.492, 619.199 496.914 C 619.500 499.500, 619.500 499.500, 694 499.392 C 940.424 499.034, 944.001 498.999, 946.058 496.942 C 948.214 494.786, 947.713 492.361, 944.929 491.478 C 941.862 490.504, 798.187 490.377, 706.547 491.267 M 452.049 508.441 C 451.104 509.579, 451.304 510.889, 453.002 514.691 C 454.184 517.336, 455.554 521.750, 456.047 524.500 C 456.540 527.250, 457.643 533.325, 458.498 538 C 459.396 542.909, 460.257 554.934, 460.538 566.461 C 461.024 586.499, 461.863 590.951, 464.105 585.413 C 465.810 581.202, 466.474 549.140, 465.098 537.473 C 463.265 521.930, 465.995 521.340, 489.828 532.125 C 495.080 534.502, 502.268 541.677, 503.920 546.192 C 507.662 556.422, 509.625 556.808, 509.210 547.232 C 508.740 536.397, 503.348 527.856, 490 516.809 C 482.192 510.347, 479.620 509.291, 468.738 508.077 C 456.036 506.661, 453.480 506.716, 452.049 508.441 M 438.226 516.010 C 435.633 522.811, 434.674 526.031, 433.459 532.005 C 432.732 535.582, 431.589 539.857, 430.918 541.505 C 428.911 546.438, 429.269 577.836, 431.437 587 C 436.180 607.044, 437.369 611.569, 438.111 612.408 C 439.389 613.850, 441.893 611.127, 442.963 607.131 C 447.371 590.657, 447.449 589.920, 447.470 564.500 C 447.489 540.202, 447.409 539.185, 444.614 528.262 C 441.258 515.148, 439.697 512.153, 438.226 516.010 M 1322 521.974 L 1296.500 522.500 1295.590 526.182 C 1294.877 529.070, 1295.043 530.417, 1296.363 532.432 C 1298.046 535, 1298.046 535, 1324.523 535 C 1349.574 535, 1351.107 534.893, 1352.979 533.021 C 1356.313 529.687, 1352.892 520.388, 1348.639 521.224 C 1348.013 521.347, 1336.025 521.685, 1322 521.974 M 913.200 528.200 C 911.928 529.472, 911.356 654.159, 912.607 657.418 C 913.407 659.504, 918.593 659.504, 919.393 657.418 C 919.727 656.548, 920 627.549, 920 592.975 C 920 530.113, 920 530.113, 917.777 528.557 C 915.106 526.685, 914.743 526.657, 913.200 528.200 M 643.582 529.750 C 642.113 534.400, 642.165 602.791, 643.640 604.896 C 645.307 607.277, 648.219 607.646, 649.849 605.682 C 651.464 603.736, 651.554 531.372, 649.943 529.432 C 648.279 527.426, 644.253 527.627, 643.582 529.750 M 681.035 529.934 C 679.158 533.442, 679.659 611.516, 681.571 613.429 C 683.958 615.815, 687.683 615.439, 688.295 612.750 C 689.384 607.959, 689.140 532.129, 688.028 530.052 C 686.621 527.424, 682.417 527.353, 681.035 529.934 M 721.217 529.250 C 720.564 530.044, 719.969 548.198, 719.584 579.050 C 718.981 627.422, 718.987 627.608, 721.082 629.858 C 722.308 631.173, 724.085 631.987, 725.342 631.807 C 727.500 631.500, 727.500 631.500, 727.759 581.114 C 727.947 544.738, 727.704 530.348, 726.887 529.364 C 725.472 527.658, 722.574 527.600, 721.217 529.250 M 759.441 529.419 C 757.563 530.792, 757.491 532.752, 757.227 589.441 C 756.953 648.044, 756.953 648.044, 759.431 650.522 C 762.109 653.199, 764.826 653.753, 765.456 651.750 C 765.672 651.063, 766.064 623.600, 766.326 590.723 C 766.739 538.970, 766.605 530.748, 765.330 529.473 C 763.482 527.625, 761.915 527.611, 759.441 529.419 M 798.107 528.912 C 796.170 530.139, 795.118 655.233, 797.026 657.532 C 798.758 659.619, 802.742 659.351, 803.965 657.066 C 804.646 655.792, 805 634.092, 805 593.566 C 805 533.333, 804.957 531.957, 803 530 C 800.775 527.775, 800.130 527.631, 798.107 528.912 M 835.571 529.571 C 833.197 531.946, 833.183 653.388, 835.557 656.777 C 837.474 659.515, 840.579 659.654, 841.965 657.066 C 842.646 655.792, 843 633.959, 843 593.137 C 843 527.317, 843.047 528, 838.500 528 C 837.754 528, 836.436 528.707, 835.571 529.571 M 874.200 529.200 C 873.292 530.108, 873 545.654, 873 593.045 C 873 652.464, 873.094 655.775, 874.829 657.345 C 877.065 659.369, 878.395 659.434, 879.921 657.595 C 881.453 655.749, 881.475 532.755, 879.944 529.895 C 878.795 527.749, 875.990 527.410, 874.200 529.200 M 1562.500 565.571 C 1560.850 565.798, 1555.450 566.486, 1550.500 567.100 C 1537.965 568.654, 1519.574 573.426, 1506.208 578.592 C 1437.049 605.321, 1389.122 664.335, 1376.340 738.500 C 1372.357 761.613, 1374.219 797.744, 1380.669 822.500 C 1399.273 893.905, 1456.095 950.727, 1527.500 969.331 C 1560.486 977.925, 1598.514 977.925, 1631.500 969.331 C 1710.162 948.837, 1768.545 884.401, 1782.660 802.500 C 1786.643 779.387, 1784.781 743.256, 1778.331 718.500 C 1757.900 640.079, 1692.822 580.991, 1612 567.478 C 1603.008 565.975, 1569.074 564.667, 1562.500 565.571 M 1027.696 571.350 C 1026.575 574.271, 1031.638 595.359, 1034.815 601 C 1046.500 621.747, 1068.210 635.286, 1092.012 636.668 C 1103.147 637.315, 1105.868 636.426, 1104.407 632.618 C 1103.700 630.775, 1102.985 630.588, 1090.660 629.023 C 1079.787 627.641, 1073.966 625.407, 1063.553 618.620 C 1050.265 609.958, 1040.714 598.907, 1036.385 587.184 C 1035.434 584.608, 1034.335 582.050, 1033.943 581.500 C 1033.551 580.950, 1032.920 578.925, 1032.541 577 C 1031.372 571.071, 1030.913 570, 1029.540 570 C 1028.811 570, 1027.981 570.607, 1027.696 571.350 M 1548.500 587.614 C 1536.098 589.837, 1522.506 593.689, 1511.523 598.092 C 1499.696 602.833, 1499.377 603.084, 1501.279 606.143 C 1502.086 607.439, 1508.045 618.850, 1514.522 631.500 C 1529.393 660.542, 1537.104 675.467, 1544.746 690 C 1548.072 696.325, 1554.155 708.009, 1558.263 715.965 C 1565.901 730.755, 1567.973 733.427, 1570.130 731.270 C 1571.227 730.173, 1565.773 591.106, 1564.481 587.250 C 1563.948 585.656, 1558.760 585.774, 1548.500 587.614 M 1594.567 586.891 C 1594.139 587.584, 1589.602 679.591, 1587.807 724 C 1587.521 731.060, 1587.632 731.518, 1589.688 731.811 C 1592.382 732.195, 1592.053 732.721, 1605.504 706.500 C 1611.429 694.950, 1618.629 681, 1621.504 675.500 C 1624.379 670, 1630.449 658.300, 1634.992 649.500 C 1639.535 640.700, 1646.570 627.154, 1650.626 619.397 C 1654.682 611.641, 1658 604.615, 1658 603.785 C 1658 598.460, 1597.393 582.319, 1594.567 586.891 M 1681.005 623.250 C 1679.278 626.138, 1675.757 631.770, 1673.182 635.766 C 1666.238 646.543, 1641.422 685.231, 1635.187 695 C 1632.204 699.675, 1628.742 705.075, 1627.496 707 C 1606.409 739.561, 1606.535 739.346, 1607.319 741.389 C 1608.298 743.939, 1610.346 743.334, 1618.177 738.180 C 1624.469 734.039, 1672.322 703.364, 1683.977 696 C 1713.319 677.462, 1730.337 666.266, 1730.735 665.238 C 1731.473 663.331, 1721.050 650.076, 1710.577 639.603 C 1702.684 631.710, 1686.219 618, 1684.632 618 C 1684.365 618, 1682.733 620.362, 1681.005 623.250 M 1465.166 624.601 C 1448.449 637.350, 1424.799 664.262, 1428.405 666.433 C 1429.380 667.020, 1433.400 669.581, 1437.339 672.125 C 1441.278 674.669, 1447.650 678.767, 1451.500 681.232 C 1462.743 688.430, 1501 712.908, 1507 716.743 C 1513.517 720.909, 1515.881 722.432, 1531 732.203 C 1546.974 742.527, 1548.559 743.383, 1550.389 742.681 C 1552.939 741.702, 1552.334 739.654, 1547.180 731.823 C 1541.398 723.037, 1508.462 671.610, 1505.196 666.268 C 1494.220 648.314, 1474.998 619.452, 1473.886 619.254 C 1473.123 619.118, 1469.200 621.525, 1465.166 624.601 M 583.500 677.076 C 517.816 686.062, 467.498 733.845, 454.314 799.752 C 451.875 811.946, 451.875 841.054, 454.314 853.248 C 464.041 901.873, 493.440 940.631, 536.470 961.558 C 559.269 972.646, 576.090 976.436, 602.500 976.436 C 636.463 976.436, 665.768 967.004, 691.530 947.782 C 731.199 918.182, 752.436 875.894, 752.436 826.500 C 752.436 800.090, 748.646 783.269, 737.558 760.470 C 716.727 717.636, 677.607 687.863, 629.811 678.466 C 619.896 676.517, 593.401 675.722, 583.500 677.076 M 1744.463 691.847 C 1743.933 692.326, 1732.925 698.132, 1720 704.749 C 1690.755 719.721, 1674.779 727.975, 1660 735.746 C 1653.675 739.072, 1641.991 745.155, 1634.035 749.263 C 1619.233 756.908, 1616.572 758.972, 1618.736 761.136 C 1620.138 762.538, 1761.832 756.458, 1763.432 754.927 C 1766.050 752.423, 1758.806 719.613, 1751.824 702.355 C 1747.568 691.832, 1746.368 690.121, 1744.463 691.847 M 1407.027 702.666 C 1399.998 720.314, 1392.996 752.396, 1395.604 755.004 C 1396.361 755.761, 1472.677 759.754, 1533 762.193 C 1540.060 762.479, 1540.518 762.368, 1540.811 760.312 C 1541.195 757.618, 1541.721 757.947, 1515.500 744.496 C 1503.950 738.571, 1490 731.371, 1484.500 728.496 C 1479 725.621, 1467.300 719.551, 1458.500 715.008 C 1449.700 710.465, 1436.154 703.430, 1428.397 699.374 C 1420.641 695.318, 1413.615 692, 1412.785 692 C 1411.799 692, 1409.802 695.698, 1407.027 702.666 M 575 694.971 C 565.475 697.022, 549.155 702.547, 547.262 704.361 C 546.285 705.297, 547.206 707.865, 551.625 716.524 C 558.487 729.969, 578.132 768.293, 586.341 784.250 C 591.826 794.911, 593.957 797.496, 595.374 795.204 C 595.911 794.334, 591.157 696.286, 590.479 694.250 C 589.916 692.560, 585.172 692.781, 575 694.971 M 614.571 693.886 C 613.361 695.843, 608.877 794.277, 609.949 795.349 C 611.707 797.107, 612.978 794.993, 628.496 764.500 C 636.613 748.550, 646.796 728.691, 651.124 720.370 C 657.180 708.727, 658.707 705.004, 657.747 704.215 C 652.111 699.582, 616.339 691.024, 614.571 693.886 M 967.471 698.973 C 965.546 700.898, 963.649 700.952, 889.191 701.191 C 833.060 701.371, 812.630 701.741, 811.927 702.588 C 811.289 703.356, 811.614 704.536, 812.897 706.121 C 814.825 708.500, 814.825 708.500, 959.924 708.589 C 1115.201 708.684, 1107.554 708.933, 1106.827 703.805 C 1106.500 701.500, 1106.500 701.500, 1040.399 701.243 C 975.814 700.992, 974.256 700.940, 972.494 698.993 C 970.260 696.525, 969.921 696.523, 967.471 698.973 M 1316.160 712.183 C 1308.099 721.831, 1298.776 728.983, 1292.849 730.069 C 1286.787 731.178, 1074.345 732.936, 1024.815 732.286 C 993.131 731.871, 993.131 731.871, 991.543 734.294 C 989.561 737.319, 990.441 739.821, 993.781 740.660 C 997.598 741.618, 1295.226 740.148, 1304.346 739.126 C 1309.857 738.509, 1312.982 737.617, 1314.846 736.133 C 1316.306 734.970, 1318.995 733.349, 1320.822 732.530 C 1325.977 730.221, 1323.815 728.812, 1315.678 729.179 C 1309.507 729.457, 1308.514 729.264, 1308.202 727.720 C 1307.835 725.908, 1314.369 718.818, 1320.753 714.100 C 1324.687 711.193, 1324.970 709, 1321.410 709 C 1319.722 709, 1317.893 710.109, 1316.160 712.183 M 521 719.669 C 510.754 727.412, 492.134 747.790, 493.413 749.860 C 493.719 750.354, 499.183 754.075, 505.555 758.129 C 511.928 762.183, 520.274 767.525, 524.102 770 C 527.931 772.475, 534.536 776.732, 538.782 779.459 C 543.027 782.187, 553.604 789.066, 562.287 794.745 C 583.639 808.711, 584.488 807.989, 571.043 787.290 C 566.117 779.705, 556.868 765.400, 550.489 755.500 C 529.490 722.906, 525.917 717.503, 525.205 717.262 C 524.817 717.131, 522.925 718.214, 521 719.669 M 675.323 722.750 C 673.314 725.913, 668.762 733, 665.207 738.500 C 661.652 744, 655.836 753, 652.281 758.500 C 648.727 764, 640.894 776.056, 634.875 785.290 C 620.250 807.729, 620.851 808.587, 641.710 795.052 C 649.295 790.131, 662.700 781.480, 671.500 775.828 C 680.300 770.176, 692.306 762.390, 698.180 758.526 C 704.055 754.662, 709.654 751.017, 710.624 750.426 C 712.276 749.421, 712.236 749.135, 710.005 745.926 C 704.539 738.064, 682.401 717, 679.604 717 C 679.258 717, 677.332 719.587, 675.323 722.750 M 1568.399 745.906 C 1558.666 750.326, 1553.044 759.331, 1553.044 770.500 C 1553.044 786.283, 1563.717 796.956, 1579.500 796.956 C 1595.283 796.956, 1605.956 786.283, 1605.956 770.500 C 1605.956 754.717, 1595.283 744.044, 1579.500 744.044 C 1574.807 744.044, 1571.148 744.658, 1568.399 745.906 M 1019.085 755.842 C 1017.209 759.346, 1017.236 812.106, 1019.114 813.296 C 1023.443 816.038, 1023.710 814.669, 1024.485 785.714 C 1024.890 770.620, 1024.915 757.309, 1024.543 756.135 C 1023.709 753.509, 1020.428 753.333, 1019.085 755.842 M 931.441 756.439 C 927.127 759.637, 931.225 760.798, 951 761.982 C 961.175 762.592, 975.303 763.738, 982.395 764.530 C 997.208 766.185, 1000.263 765.547, 1000.822 760.682 C 1001.480 754.961, 1001.719 755, 966.069 755 C 939.197 755, 933.037 755.256, 931.441 756.439 M 1571.400 762.400 C 1568.498 765.302, 1568 766.488, 1568 770.500 C 1568 774.512, 1568.498 775.698, 1571.400 778.600 C 1578.880 786.080, 1591 781.072, 1591 770.500 C 1591 766.488, 1590.502 765.302, 1587.600 762.400 C 1584.698 759.498, 1583.512 759, 1579.500 759 C 1575.488 759, 1574.302 759.498, 1571.400 762.400 M 480.145 771.325 C 476.111 776.186, 467.334 811.734, 469.606 814.006 C 471.065 815.465, 570.028 820.372, 571.349 819.051 C 573.107 817.293, 570.993 816.022, 540.500 800.504 C 524.550 792.387, 504.691 782.204, 496.370 777.876 C 484.235 771.564, 481.023 770.267, 480.145 771.325 M 712.500 775.474 C 707 778.353, 692.150 786.015, 679.500 792.502 C 666.850 798.989, 651.212 807.016, 644.750 810.341 C 634.105 815.817, 631.505 817.958, 633.785 819.367 C 635.117 820.190, 734.442 814.886, 735.427 813.938 C 738.433 811.046, 726.752 769.428, 723.128 770.120 C 722.782 770.186, 718 772.595, 712.500 775.474 M 1618.268 779.745 C 1617.202 782.521, 1619.337 784.034, 1637.500 793.371 C 1647.400 798.461, 1663.600 806.818, 1673.500 811.944 C 1691.082 821.047, 1697.103 824.178, 1729.111 840.863 C 1737.697 845.338, 1745.397 849, 1746.223 849 C 1751.192 849, 1767.300 789.900, 1763.395 785.995 C 1762.852 785.452, 1733.566 783.711, 1696.962 782.044 C 1660.958 780.405, 1628.655 778.874, 1625.177 778.641 C 1620.157 778.306, 1618.733 778.533, 1618.268 779.745 M 1459 782.227 C 1424.625 783.854, 1396.080 785.585, 1395.568 786.075 C 1392.995 788.531, 1400.115 821.075, 1406.962 838.153 C 1411.843 850.328, 1412.075 850.628, 1415.143 848.721 C 1416.439 847.914, 1427.850 841.955, 1440.500 835.478 C 1470.594 820.068, 1485.171 812.537, 1498 805.772 C 1503.775 802.727, 1515.250 796.767, 1523.500 792.527 C 1539.876 784.111, 1541.571 782.931, 1540.668 780.578 C 1539.869 778.494, 1536.397 778.564, 1459 782.227 M 1131.963 795.069 C 1130.525 797.756, 1130.747 810.578, 1132.250 811.628 C 1132.949 812.115, 1163.911 812.280, 1202.500 812 L 1271.500 811.500 1271.794 803.655 C 1271.961 799.202, 1271.635 795.265, 1271.040 794.549 C 1270.216 793.556, 1255.397 793.285, 1201.460 793.278 C 1136.483 793.269, 1132.877 793.362, 1131.963 795.069 M 1545.964 799.352 C 1544.825 800.405, 1500.641 828.837, 1475.028 845 C 1446.516 862.992, 1428.663 874.737, 1428.265 875.762 C 1426.065 881.444, 1472.463 926.528, 1475.433 921.595 C 1476.020 920.620, 1478.581 916.600, 1481.125 912.661 C 1486.433 904.444, 1489.522 899.621, 1508.456 870 C 1516.014 858.175, 1523.220 846.925, 1524.470 845 C 1525.719 843.075, 1528.316 839.025, 1530.241 836 C 1532.166 832.975, 1537.093 825.325, 1541.188 819 C 1551.509 803.062, 1552.384 801.444, 1551.681 799.611 C 1550.928 797.648, 1547.956 797.513, 1545.964 799.352 M 1607.309 799.636 C 1606.964 800.536, 1607.091 801.881, 1607.591 802.625 C 1608.714 804.297, 1650.547 869.516, 1654 874.979 C 1672.785 904.696, 1683.733 921.336, 1684.762 921.735 C 1690.444 923.935, 1735.528 877.537, 1730.595 874.567 C 1729.620 873.980, 1725.600 871.419, 1721.661 868.875 C 1713.444 863.567, 1708.621 860.478, 1679 841.544 C 1667.175 833.986, 1655.925 826.775, 1654 825.520 C 1652.075 824.265, 1647.125 821.092, 1643 818.469 C 1638.875 815.846, 1631.900 811.360, 1627.500 808.501 C 1609.689 796.924, 1608.543 796.421, 1607.309 799.636 M 953.620 803.051 C 946.282 803.914, 944.373 804.923, 945.336 807.433 C 945.745 808.500, 947.303 809.023, 950.219 809.074 C 952.573 809.114, 964.400 809.708, 976.500 810.394 C 988.600 811.080, 999.066 811.447, 999.759 811.210 C 1001.513 810.610, 1002.501 806.018, 1001.289 804.095 C 1000.137 802.267, 966.555 801.531, 953.620 803.051 M 593.500 807.662 C 573.824 818.034, 580.451 847, 602.500 847 C 614.552 847, 623 838.552, 623 826.500 C 623 818.080, 619.136 811.670, 611.790 807.903 C 607.185 805.541, 597.758 805.417, 593.500 807.662 M 1565.698 811.189 C 1564.912 812.460, 1559.421 822.950, 1553.496 834.500 C 1547.571 846.050, 1540.371 860, 1537.496 865.500 C 1534.621 871, 1528.551 882.700, 1524.008 891.500 C 1519.465 900.300, 1512.430 913.846, 1508.374 921.603 C 1504.318 929.359, 1501 936.385, 1501 937.215 C 1501 942.191, 1560.095 958.305, 1564.005 954.395 C 1564.757 953.643, 1568.933 873.835, 1571.221 816.500 C 1571.482 809.961, 1571.356 809.479, 1569.313 809.189 C 1567.886 808.986, 1566.630 809.681, 1565.698 811.189 M 1588.329 810.586 C 1587.438 812.907, 1594.023 953.332, 1595.074 954.432 C 1597.532 957.005, 1630.075 949.885, 1647.153 943.038 C 1659.328 938.157, 1659.628 937.925, 1657.721 934.857 C 1656.914 933.561, 1650.955 922.150, 1644.478 909.500 C 1629.068 879.406, 1621.537 864.829, 1614.772 852 C 1611.727 846.225, 1605.759 834.750, 1601.509 826.500 C 1597.260 818.250, 1593.327 810.938, 1592.769 810.250 C 1591.361 808.514, 1589.057 808.688, 1588.329 810.586 M 596.174 820.314 C 590.808 826.027, 594.758 835, 602.640 835 C 607.995 835, 611 831.894, 611 826.360 C 611 818.658, 601.406 814.746, 596.174 820.314 M 517.500 835.695 C 491.650 837.062, 470.083 838.579, 469.573 839.066 C 467.227 841.312, 476.730 878.871, 480.420 881.934 C 481.270 882.639, 484.870 881.281, 492.564 877.354 C 511.760 867.557, 548.118 848.912, 560 842.771 C 572.329 836.399, 574.680 833.631, 568 833.355 C 566.075 833.276, 543.350 834.329, 517.500 835.695 M 633.441 834.096 C 632.306 835.932, 634.475 837.216, 664.500 852.496 C 680.450 860.613, 700.309 870.796, 708.630 875.124 C 720.765 881.436, 723.977 882.733, 724.855 881.675 C 728.935 876.758, 737.664 841.264, 735.359 838.959 C 734.801 838.401, 713.117 836.879, 685.933 835.490 C 629.205 832.590, 634.288 832.725, 633.441 834.096 M 1172.500 838.007 C 1080.100 838.286, 1004.432 838.624, 1004.348 838.757 C 1001.462 843.360, 1001.242 854.767, 1003.973 858.238 C 1008.822 864.403, 996.651 864, 1178.169 864 C 1343.536 864, 1343.536 864, 1347.166 861.533 C 1358.678 853.710, 1356.760 839.398, 1344 837.909 C 1342.075 837.684, 1264.900 837.728, 1172.500 838.007 M 625.667 848.667 C 624.211 850.122, 625.339 852.443, 633.948 865.710 C 638.869 873.295, 647.520 886.700, 653.172 895.500 C 658.824 904.300, 666.610 916.306, 670.474 922.180 C 674.338 928.055, 677.987 933.661, 678.583 934.638 C 679.579 936.275, 680.057 936.128, 684.583 932.793 C 694.241 925.676, 712.866 905.210, 711.579 903.128 C 711.278 902.640, 705.817 898.925, 699.445 894.871 C 693.072 890.817, 684.726 885.475, 680.898 883 C 677.069 880.525, 670.464 876.268, 666.218 873.541 C 661.973 870.813, 651.420 863.951, 642.768 858.291 C 625.877 847.242, 626.654 847.680, 625.667 848.667 M 563 858.025 C 555.575 862.903, 542.300 871.519, 533.500 877.172 C 524.700 882.824, 512.694 890.610, 506.820 894.474 C 500.945 898.338, 495.339 901.987, 494.362 902.583 C 492.725 903.579, 492.872 904.057, 496.207 908.583 C 503.324 918.241, 523.790 936.866, 525.872 935.579 C 526.360 935.278, 530.075 929.817, 534.129 923.445 C 538.183 917.072, 543.525 908.726, 546 904.898 C 548.475 901.069, 552.732 894.464, 555.459 890.218 C 558.187 885.973, 565.066 875.396, 570.745 866.713 C 584.715 845.357, 583.817 844.350, 563 858.025 M 592.268 858.250 C 591.731 858.938, 584.644 872.550, 576.519 888.500 C 568.394 904.450, 558.204 924.309, 553.876 932.630 C 547.564 944.765, 546.267 947.977, 547.325 948.855 C 552.243 952.936, 587.736 961.664, 590.041 959.359 C 591.092 958.308, 596.434 860.574, 595.565 858.308 C 594.931 856.657, 593.532 856.632, 592.268 858.250 M 609.633 857.785 C 608.810 859.117, 614.114 958.442, 615.062 959.427 C 617.318 961.772, 654.870 952.271, 657.934 948.580 C 658.639 947.730, 657.281 944.130, 653.354 936.436 C 646.510 923.026, 626.859 884.688, 618.659 868.750 C 613.183 858.105, 611.042 855.505, 609.633 857.785 M 925.874 953.420 C 925.668 953.605, 873.525 954.048, 810 954.406 C 746.475 954.764, 692.475 955.328, 690 955.659 C 687.468 955.998, 682.650 957.943, 678.984 960.105 C 675.401 962.220, 668.651 965.560, 663.984 967.528 C 659.318 969.496, 654.375 971.645, 653 972.303 C 649.088 974.176, 788.943 974.772, 1143 974.393 C 1314.325 974.210, 1470.678 974.047, 1490.450 974.030 C 1510.308 974.013, 1525.975 973.619, 1525.450 973.149 C 1524.928 972.681, 1518.974 970.428, 1512.219 968.142 C 1505.465 965.857, 1495.565 961.875, 1490.219 959.293 L 1480.500 954.599 1395 953.913 C 1307.736 953.212, 926.553 952.812, 925.874 953.420 M 1679.500 956.062 C 1676.750 956.425, 1670 958.747, 1664.500 961.222 C 1659 963.696, 1650.792 966.944, 1646.260 968.439 C 1641.729 969.934, 1637.765 971.572, 1637.451 972.079 C 1636.274 973.983, 1806.926 973.246, 1810.227 971.332 C 1810.627 971.100, 1824.332 970.253, 1840.683 969.449 C 1870.310 967.994, 1873.840 967.412, 1870.896 964.468 C 1868.499 962.071, 1855.506 960.663, 1811.500 958.035 C 1784.837 956.443, 1687.624 954.990, 1679.500 956.062 M 442 957.010 C 391.138 958.046, 347.513 960.402, 345.250 962.233 C 343.826 963.386, 343.577 966.620, 344.851 967.408 C 345.320 967.698, 356.907 968.878, 370.601 970.031 C 405.136 972.939, 555.935 975.465, 553.450 973.094 C 552.928 972.595, 548.755 970.719, 544.178 968.924 C 539.600 967.129, 532.400 963.631, 528.178 961.151 C 520.500 956.641, 520.500 956.641, 499 956.464 C 487.175 956.366, 461.525 956.612, 442 957.010"/>
</svg>