<svg xmlns="http://www.w3.org/2000/svg" viewBox="0 0 489 304" role="img" aria-label="GSYEN vintage carriage logo - rear wheel burr cleanup light transparent">
  <title>GSYEN vintage carriage logo - rear wheel burr cleanup light transparent</title>
  <defs>
    <mask id="bodyMask" maskUnits="userSpaceOnUse" x="0" y="0" width="489" height="304" style="mask-type:luminance">
      <rect width="489" height="304" fill="black"/>
      <path fill="white" fill-rule="evenodd" d="M 311.947 29.021 C 289.290 30.929, 261.658 36.318, 259.893 39.173 C 257.981 42.266, 261.136 42.943, 270.730 41.499 C 296.389 37.636, 345.580 37.039, 361.737 40.393 C 374.913 43.128, 383.693 48.758, 388.310 57.432 C 391.661 63.726, 391.423 76.531, 387.812 84.235 C 384.237 91.863, 380.581 96.504, 375.265 100.161 C 371.018 103.084, 357.528 108.195, 356.576 107.243 C 355.620 106.286, 356.013 47.484, 356.986 46 C 357.642 45, 357.974 54.600, 357.985 74.829 L 358 105.159 361.250 104.472 C 375.130 101.538, 387.221 87.948, 388.700 73.620 C 390.386 57.283, 381.061 46.853, 360.633 42.229 C 351.527 40.167, 301.887 39.909, 282.702 41.823 C 265.432 43.546, 264.275 44.078, 270.500 47.430 C 272.968 48.759, 274 50.006, 274 51.657 C 274 53.073, 274.594 54, 275.500 54 C 277.327 54, 277.425 55.149, 275.750 56.925 C 274.750 57.985, 274.750 58.342, 275.750 58.708 C 276.708 59.060, 277 65.561, 277 86.583 C 277 113.333, 276.951 114, 275 114 C 273.631 114, 273 114.667, 273 116.115 C 273 117.309, 270.654 120.683, 267.611 123.865 C 264.647 126.964, 261.062 130.850, 259.643 132.500 L 257.063 135.500 257.032 126.877 C 256.998 117.634, 254.314 109, 251.475 109 C 250.320 109, 250.258 108.528, 251.153 106.564 C 252.646 103.286, 251.597 101, 248.599 101 C 245.699 101, 244.188 104.316, 246.060 106.572 C 246.734 107.384, 247.072 108.261, 246.812 108.521 C 245.925 109.408, 236.515 109.312, 212.137 108.166 C 198.737 107.537, 187.372 107.270, 186.880 107.574 C 186.388 107.878, 185.735 107.474, 185.429 106.676 C 185.123 105.877, 183.438 104.928, 181.686 104.565 C 178.795 103.966, 178.662 103.784, 180.250 102.592 C 181.212 101.870, 182 100.929, 182 100.500 C 182 100.071, 182.748 99.173, 183.662 98.505 C 184.669 97.769, 185.070 96.624, 184.678 95.604 C 184.131 94.177, 182.764 93.963, 175.766 94.209 C 168.315 94.471, 167.500 94.694, 167.500 96.464 C 167.500 98.171, 168.262 98.452, 173.310 98.607 C 180.578 98.831, 182.163 100, 175.198 100 C 171.044 100, 170.173 100.287, 170.638 101.500 C 170.955 102.325, 172.178 103.048, 173.357 103.107 C 174.536 103.166, 173.588 103.642, 171.250 104.166 C 168.656 104.747, 167 105.679, 167 106.559 C 167 107.622, 165.685 108, 161.986 108 C 159.229 108, 156.191 108.397, 155.236 108.882 C 154.281 109.368, 152.170 110.159, 150.544 110.641 C 148.886 111.132, 146.143 113.413, 144.294 115.836 L 141 120.155 141 137.419 L 141 154.683 145.726 153.966 C 151.160 153.141, 164.392 155.545, 172.741 158.874 C 183.308 163.087, 192.558 170.612, 202.628 183.186 C 215.792 199.623, 226.779 207.747, 238.886 209.998 C 246.436 211.402, 249 211.276, 249 209.500 C 249 208.189, 254.705 208, 294.345 208 C 348.003 208, 342.994 209.398, 343.012 194.421 C 343.026 182.716, 344.430 176.780, 349.441 167.244 C 364.941 137.748, 401.414 130.022, 427.426 150.725 C 431.887 154.275, 434.053 155.368, 436.188 155.144 C 440.491 154.693, 448.850 157.842, 450.653 160.593 C 452.322 163.141, 456 163.899, 456 161.696 C 456 160.978, 454.720 158.391, 453.156 155.946 C 436.692 130.207, 398.556 120.493, 369.270 134.579 C 349.586 144.046, 335.416 167.832, 333.327 194.911 L 332.704 203 327.782 203 C 323.251 203, 322.886 202.822, 323.180 200.750 C 323.431 198.986, 324.039 198.575, 326 198.845 C 327.375 199.035, 328.650 199.598, 328.833 200.095 C 329.803 202.726, 330.773 200.199, 331.271 193.750 C 332.505 177.777, 339.430 159.990, 348.974 148.279 C 361.284 133.174, 377.196 126.058, 398.750 126.017 L 408 126 408 121.500 C 408 116.186, 406.725 115.757, 404.289 120.250 L 402.527 123.500 402.202 120.799 C 402.023 119.314, 402.391 117.138, 403.019 115.964 C 404.564 113.077, 403.883 112.690, 399.351 113.878 C 389.511 116.456, 354 118.237, 354 116.152 C 354 115.686, 361.538 115.022, 370.750 114.676 C 385.952 114.105, 400.092 112.679, 401.953 111.529 C 402.350 111.284, 402.976 96.343, 403.344 78.328 C 403.905 50.793, 404.250 45.440, 405.506 44.737 C 408.474 43.076, 407.206 39.978, 402.750 38.008 C 386.094 30.644, 343.148 26.394, 311.947 29.021 M 286.688 49.688 C 284.473 50.048, 284.111 50.429, 284.986 51.483 C 285.753 52.407, 285.772 53.023, 285.049 53.470 C 284.354 53.899, 284 64.404, 284 84.559 C 284 120.188, 283.685 119.458, 293.798 107.278 C 298.157 102.028, 299.880 99.201, 299.396 98.096 C 299.010 97.218, 298.494 95.074, 298.248 93.330 C 298.001 91.587, 296.720 89.146, 295.400 87.906 C 292.986 85.638, 292.249 82.582, 293.875 81.577 C 296.067 80.222, 321.904 104.729, 320.566 106.894 C 319.578 108.492, 316.807 108.253, 314.067 106.334 C 312.759 105.418, 310.521 104.594, 309.094 104.503 C 307.668 104.412, 305.808 104.025, 304.963 103.643 C 303.881 103.155, 302.029 104.566, 298.713 108.408 C 296.121 111.410, 294 114.129, 294 114.449 C 294 114.770, 306.262 114.912, 321.250 114.766 L 348.500 114.500 348.764 83.384 C 349.002 55.369, 348.862 52.130, 347.362 50.884 C 346.040 49.785, 339.908 49.472, 317.598 49.366 C 302.144 49.292, 288.234 49.437, 286.688 49.688 M 301 95.441 C 301 96.298, 301.450 97, 302 97 C 302.550 97, 303 96.577, 303 96.059 C 303 95.541, 302.550 94.840, 302 94.500 C 301.450 94.160, 301 94.584, 301 95.441 M 306 100.500 C 306 101.325, 306.730 102, 307.622 102 C 308.951 102, 309.020 101.729, 308 100.500 C 307.315 99.675, 306.585 99, 306.378 99 C 306.170 99, 306 99.675, 306 100.500 M 243.255 111.843 C 242.452 112.339, 242.073 119.028, 241.999 134.027 C 241.827 168.846, 241.933 173, 243 173 C 243.644 173, 244 162.567, 244 143.700 C 244 123.934, 244.354 114.046, 245.087 113.313 C 246.384 112.016, 244.900 110.826, 243.255 111.843 M 166.250 112.669 C 161.311 112.916, 158 113.510, 158 114.151 C 158 114.880, 163.348 115.136, 174.750 114.952 C 183.963 114.804, 201.738 114.902, 214.250 115.170 C 232.746 115.566, 237 115.409, 237 114.329 C 237 113.293, 234.184 112.999, 224.250 112.997 C 217.238 112.996, 203.175 112.829, 193 112.626 C 182.825 112.424, 170.787 112.443, 166.250 112.669 M 150.900 114.620 C 149.116 116.770, 148.206 148.606, 149.881 150.281 C 150.706 151.106, 151.012 147.348, 151.044 135.950 C 151.073 125.685, 151.537 119.241, 152.426 116.750 C 153.832 112.811, 153.169 111.886, 150.900 114.620 M 274 121.228 C 274 123.917, 272.706 125.757, 266.252 132.249 L 258.505 140.042 261.002 144.700 C 263.982 150.258, 267.230 152.839, 272.273 153.657 L 276 154.262 276 136.131 C 276 124.710, 275.630 118, 275 118 C 274.450 118, 274 119.453, 274 121.228 M 282 148.103 L 282 177.206 298.250 176.736 C 307.188 176.477, 316.176 175.738, 318.225 175.093 C 324.595 173.087, 330.207 167.934, 336.734 158.098 C 344.435 146.491, 347.033 139.774, 347.749 129.617 C 348.209 123.083, 348.618 121.651, 350.141 121.253 C 356.329 119.635, 346.833 119, 316.441 119 L 282 119 282 148.103 M 111.634 122.512 C 111.293 123.400, 110.577 123.857, 110.044 123.527 C 108.261 122.425, 105.223 126.731, 104.105 131.944 C 101.228 145.359, 104.816 158, 111.500 158 C 113.655 158, 113.999 158.448, 113.992 161.250 C 113.986 163.990, 113.358 164.858, 109.992 166.780 C 107.458 168.227, 106 169.779, 106 171.030 C 106 173.514, 107.689 173.521, 111.433 171.053 C 114.065 169.319, 114.485 169.280, 115.510 170.682 C 116.879 172.556, 121 171.618, 121 169.433 C 121 167.273, 123.091 167.746, 127.156 170.825 L 130.811 173.593 125.605 178.183 C 119.456 183.605, 114.596 192.195, 113.121 200.250 C 110.734 213.283, 117.095 228.901, 127.635 235.881 L 131.881 238.694 109.346 239.275 C 96.952 239.594, 86.554 240.113, 86.239 240.428 C 84.537 242.130, 90.183 242.545, 121.333 243.005 C 170.243 243.727, 437.851 243.291, 454.333 242.462 C 476.007 241.372, 469.753 239.870, 440.936 239.243 L 415.679 238.694 419.740 236.783 C 421.974 235.732, 426.463 232.462, 429.718 229.517 C 451.492 209.812, 449.735 172.501, 426.199 154.809 C 422.847 152.289, 420.374 149.960, 420.702 149.631 C 421.030 149.303, 418.288 147.626, 414.609 145.904 C 398.170 138.212, 375.894 141.988, 361.846 154.849 C 337.118 177.487, 339.552 216.539, 366.825 234.717 L 372.500 238.500 270.956 238.500 L 169.412 238.500 173.832 235.572 C 179.036 232.125, 184.162 224.559, 186.401 217.021 C 192.830 195.372, 177.615 172.867, 154.621 170.015 C 145.502 168.884, 144.744 167.622, 153.545 168.223 C 163.494 168.902, 171.433 172.676, 178.503 180.088 C 186.253 188.213, 189.349 195.324, 189.434 205.189 C 189.493 212.039, 189.722 212.947, 191.500 213.372 C 195.293 214.279, 232.806 215.256, 237.398 214.568 C 243.276 213.686, 243.279 212.447, 237.406 211.642 C 225.715 210.040, 214.106 201.419, 199.722 183.657 C 184.204 164.495, 169.617 156.896, 148.500 156.973 C 136.945 157.015, 133.923 157.351, 127.226 159.340 C 122.516 160.739, 122.355 160.720, 122.498 158.774 C 122.580 157.666, 123.653 156.221, 124.884 155.562 C 127.505 154.159, 130.984 149.208, 130.993 146.867 C 130.997 145.968, 131.900 144.998, 133 144.710 C 135.696 144.005, 135.651 139.369, 132.920 136.605 C 131.777 135.447, 129.853 132.925, 128.646 131 C 127.439 129.075, 125.524 127.088, 124.391 126.584 C 123.258 126.081, 121.919 124.731, 121.416 123.584 C 120.212 120.845, 112.594 120.010, 111.634 122.512 M 284 148.122 L 284 175.243 299.250 174.798 C 312.383 174.415, 315.232 174.033, 319.770 172.045 C 332.580 166.434, 345.954 143.328, 345.988 126.750 L 346 121 315 121 L 284 121 284 148.122 M 176.750 122.770 C 162.813 122.942, 155 123.405, 155 124.059 C 155 125.372, 235.739 125.231, 236.552 123.916 C 236.868 123.404, 234.337 122.934, 230.809 122.850 C 217.738 122.538, 197.787 122.509, 176.750 122.770 M 113.583 129.250 C 113.978 130.488, 114.619 135.100, 115.007 139.500 L 115.713 147.500 115.856 139.250 C 115.948 134.009, 116.401 131, 117.099 131 C 119.500 131, 124.801 134.229, 125.803 136.303 L 126.865 138.500 126.932 136.150 C 127.042 132.342, 120.970 127, 116.533 127 C 113.183 127, 112.928 127.195, 113.583 129.250 M 107.957 131.631 C 106.585 135.786, 107.077 149.528, 108.701 152.429 C 109.715 154.242, 109.808 154.228, 110.955 152.084 C 113.246 147.803, 112.487 128, 110.032 128 C 109.550 128, 108.616 129.634, 107.957 131.631 M 324 132 C 324 133.805, 324.667 134, 330.833 134 C 338.104 134, 339.178 133.628, 338.324 131.402 C 337.934 130.387, 335.884 130, 330.893 130 C 324.667 130, 324 130.193, 324 132 M 160.868 137.750 C 160.795 140.912, 160.707 145.189, 160.673 147.254 C 160.639 149.318, 161.036 151.008, 161.556 151.009 C 162.075 151.010, 162.629 146.733, 162.786 141.505 C 162.969 135.429, 162.699 132, 162.036 132 C 161.457 132, 160.942 134.535, 160.868 137.750 M 170 142.441 C 170 148.323, 170.437 153.152, 171 153.500 C 171.644 153.898, 172 150.177, 172 143.059 C 172 136.353, 171.606 132, 171 132 C 170.397 132, 170 136.147, 170 142.441 M 180 145 C 180 153, 180.385 158, 181 158 C 181.615 158, 182 153, 182 145 C 182 137, 181.615 132, 181 132 C 180.385 132, 180 137, 180 145 M 189 146.941 C 189 155.823, 189.406 162.133, 190 162.500 C 190.643 162.898, 191 159.224, 191 152.199 C 191 146.193, 191.286 139.191, 191.636 136.640 C 192.169 132.752, 192.007 132, 190.636 132 C 189.194 132, 189 133.775, 189 146.941 M 199 148.500 C 199 158.833, 199.374 165, 200 165 C 200.626 165, 201 158.833, 201 148.500 C 201 138.167, 200.626 132, 200 132 C 199.374 132, 199 138.167, 199 148.500 M 208.441 133.294 C 208.168 134.006, 208.069 141.207, 208.222 149.296 C 208.606 169.614, 210.419 168.694, 210.775 148.002 C 210.959 137.260, 210.702 132, 209.993 132 C 209.413 132, 208.714 132.582, 208.441 133.294 M 218 147.941 C 218 157.490, 218.401 164.130, 219 164.500 C 219.651 164.903, 220 159.344, 220 148.559 C 220 138.186, 219.626 132, 219 132 C 218.375 132, 218 137.980, 218 147.941 M 228 148.500 C 228 158.833, 228.374 165, 229 165 C 229.626 165, 230 158.833, 230 148.500 C 230 138.167, 229.626 132, 229 132 C 228.374 132, 228 138.167, 228 148.500 M 257.439 145.477 C 258.073 150.430, 260.550 153.849, 265.594 156.734 C 269.528 158.983, 276.672 159.896, 275.500 158 C 275.160 157.450, 273.594 157, 272.019 157 C 267.742 157, 260.883 151.302, 258.729 145.959 L 256.930 141.500 257.439 145.477 M 118.500 153.472 C 116.299 154.197, 115.400 154.817, 116.500 154.850 C 117.600 154.883, 119.850 154.292, 121.500 153.536 C 125.311 151.791, 123.705 151.757, 118.500 153.472 M 383.286 153.394 C 353.154 163.214, 344.186 202.798, 367.370 223.643 C 376.440 231.798, 384.422 234.471, 397.727 233.812 C 417.438 232.836, 432.494 219.055, 436.029 198.754 C 438.891 182.319, 428.484 163.708, 412 155.784 C 404.295 152.080, 390.773 150.954, 383.286 153.394 M 382.169 155.942 C 372.084 159.661, 363.716 167.796, 358.731 178.729 C 356.967 182.596, 356.550 185.398, 356.527 193.518 C 356.502 202.820, 356.731 204.005, 359.741 210.123 C 363.645 218.055, 370.794 225.076, 378.782 228.820 C 383.848 231.195, 385.699 231.500, 395.021 231.500 C 404.864 231.500, 405.966 231.291, 412.126 228.259 C 420.055 224.355, 427.078 217.203, 430.820 209.218 C 433.193 204.154, 433.500 202.299, 433.500 193 C 433.500 180.358, 431.027 174.122, 422.717 165.812 C 412.123 155.218, 395.263 151.114, 382.169 155.942 M 383.046 160.918 C 380.596 161.911, 378.428 163.215, 378.228 163.815 C 378.028 164.415, 379.639 167.290, 381.808 170.203 C 383.978 173.116, 386.274 176.512, 386.911 177.750 C 387.549 178.988, 388.955 180, 390.035 180 C 391.864 180, 392 179.271, 392 169.500 C 392 157.497, 391.846 157.349, 383.046 160.918 M 397.215 169.250 C 397.476 178.637, 397.668 179.522, 399.500 179.758 C 401.001 179.952, 402.811 178.080, 406.753 172.258 C 409.643 167.991, 412.005 164.218, 412.003 163.873 C 411.998 162.801, 402.268 159, 399.530 159 L 396.930 159 397.215 169.250 M 370.073 169.728 C 366.544 174.009, 366.297 175, 368.761 175 C 369.729 175, 373.593 177.061, 377.348 179.580 C 381.102 182.098, 384.382 183.951, 384.636 183.697 C 385.473 182.861, 374.736 166, 373.367 166 C 373.245 166, 371.763 167.678, 370.073 169.728 M 410.446 174.366 C 405.037 182.493, 404.059 186.016, 407.219 185.989 C 410.547 185.961, 426 180.262, 426 179.063 C 426 177.901, 420.216 169.506, 418.089 167.581 C 416.188 165.860, 415.988 166.038, 410.446 174.366 M 222.250 174.771 C 210.545 174.936, 203 175.426, 203 176.021 C 203 176.642, 216.533 177, 240 177 C 262.849 177, 277 176.635, 277 176.045 C 277 174.956, 251.392 174.361, 222.250 174.771 M 144.344 178.031 C 125.887 181.730, 115.835 201.578, 123.844 218.509 C 129.016 229.441, 138.367 235.322, 150.590 235.329 C 176.481 235.345, 189.183 204.300, 170.692 186.199 C 163.705 179.360, 153.499 176.196, 144.344 178.031 M 326.706 179.750 L 323.957 182.500 285.978 182.784 C 262.424 182.961, 248 183.436, 248 184.034 C 248 185.739, 325.984 185.224, 329 183.500 L 331.500 182.071 329.076 182.035 L 326.651 182 329 179.500 C 332.203 176.090, 330.139 176.315, 326.706 179.750 M 362.636 181.283 C 360.060 188.028, 360.347 188.788, 365.750 189.527 C 368.363 189.884, 372.877 190.521, 375.781 190.942 C 381.471 191.766, 381.415 191.792, 382.354 187.856 C 382.895 185.589, 382.602 185.117, 380.293 184.537 C 378.812 184.166, 374.966 182.318, 371.747 180.431 C 368.527 178.544, 365.528 177, 365.082 177 C 364.636 177, 363.536 178.928, 362.636 181.283 M 140.969 180.536 C 126.019 185.145, 118.333 204.242, 125.578 218.780 C 130.478 228.613, 138.713 233.465, 150.500 233.465 C 159.988 233.465, 164.377 231.569, 170.658 224.756 C 189.684 204.114, 168.215 172.137, 140.969 180.536 M 142.299 184.106 C 137.743 185.424, 137.684 186.062, 141.603 191.574 C 146.647 198.669, 148.425 198.218, 148.796 189.750 C 149.122 182.295, 148.982 182.173, 142.299 184.106 M 152 189.921 C 152 196.010, 152.245 196.995, 153.750 196.963 C 155.144 196.934, 160.268 190.518, 161.811 186.870 C 162.222 185.898, 159.280 184.404, 155.250 183.539 L 152 182.841 152 189.921 M 417.753 187.329 C 406.279 191.488, 405.883 193.465, 415.750 197.324 C 419.462 198.776, 423.905 200.242, 425.622 200.582 C 428.673 201.185, 428.756 201.101, 429.325 196.849 C 429.996 191.839, 428.958 184.782, 427.496 184.411 C 426.948 184.272, 422.564 185.585, 417.753 187.329 M 389.455 187.455 C 384.314 192.595, 387.899 201.333, 395.150 201.333 C 399.123 201.333, 403 197.168, 403 192.899 C 403 188.892, 399.058 185, 395 185 C 393.052 185, 391.002 185.907, 389.455 187.455 M 390.655 188.829 C 388.469 191.244, 388.552 195.284, 390.829 197.345 C 396.643 202.607, 404.541 194.541, 399 189 C 396.504 186.504, 392.827 186.429, 390.655 188.829 M 132.096 191.699 C 127.956 196.722, 128.131 197.345, 134.250 199.386 C 137.137 200.350, 140.007 201.351, 140.627 201.611 C 143.459 202.801, 142.651 198.591, 139.065 193.471 L 135.192 187.943 132.096 191.699 M 254.667 188.667 C 253.587 189.747, 253.895 203, 255 203 C 255.578 203, 256 199.833, 256 195.500 C 256 187.969, 255.896 187.437, 254.667 188.667 M 163.912 190.651 C 156.124 199.778, 156.712 202.312, 165.968 199.510 C 169.286 198.505, 172 197.380, 172 197.008 C 172 196.637, 170.535 194.639, 168.745 192.567 C 165.629 188.963, 165.422 188.881, 163.912 190.651 M 236.500 190.046 C 243.746 191.175, 250 191.153, 250 190 C 250 189.396, 246.339 189.053, 240.750 189.134 C 232.461 189.253, 232.019 189.348, 236.500 190.046 M 360.889 194.750 C 360.405 198.030, 362.425 206.446, 364.246 208.742 C 365.273 210.036, 373.434 206.043, 379.257 201.399 C 383.698 197.857, 382.067 195.396, 374.772 194.634 C 366.661 193.786, 361.025 193.833, 360.889 194.750 M 283 200.500 L 283 203 300.500 203 L 318 203 318 200.500 L 318 198 300.500 198 L 283 198 283 200.500 M 406.098 201.215 C 405.060 202.877, 405.666 204.200, 410.610 211.068 C 413.751 215.430, 416.615 219, 416.974 219 C 418.025 219, 422.500 213.805, 424.873 209.829 C 427.485 205.455, 427.687 205.633, 416.012 202.004 C 407.504 199.359, 407.269 199.340, 406.098 201.215 M 126.787 203 C 126.545 204.650, 126.530 207.248, 126.754 208.774 L 127.161 211.548 133.606 209.529 C 137.774 208.224, 139.955 207.033, 139.776 206.160 C 139.574 205.171, 129.221 200, 127.444 200 C 127.324 200, 127.029 201.350, 126.787 203 M 238 201 L 235.500 201.801 238.110 201.900 C 239.546 201.955, 242.809 202.286, 245.360 202.636 C 249.248 203.169, 250 203.007, 250 201.636 C 250 199.831, 242.835 199.451, 238 201 M 146.200 202.200 C 143.200 205.200, 146.289 212, 150.651 212 C 152.169 212, 155 209.225, 155 207.737 C 155 207.122, 154.412 207.421, 153.694 208.404 C 150.952 212.154, 144.152 208.167, 146.607 204.250 C 148.276 201.589, 151.570 201.548, 153.403 204.166 C 154.502 205.734, 155 205.970, 155 204.923 C 155 202.636, 152.915 201, 150 201 C 148.570 201, 146.860 201.540, 146.200 202.200 M 165.216 203.200 C 162.309 204.352, 160.092 205.776, 160.288 206.364 C 160.845 208.035, 172.142 212.258, 173.207 211.193 C 173.714 210.686, 173.987 208.302, 173.814 205.894 C 173.436 200.631, 172.466 200.327, 165.216 203.200 M 382 205.742 C 380.625 206.642, 378.567 208.198, 377.426 209.199 C 376.285 210.199, 374.975 210.677, 374.515 210.259 C 374.056 209.842, 373.978 210.023, 374.344 210.661 C 374.710 211.300, 374.219 213.200, 373.254 214.882 C 371.559 217.839, 371.567 218.005, 373.500 219.805 C 376.126 222.251, 387.101 227, 390.125 226.999 C 392.221 226.998, 392.488 226.557, 392.395 223.249 C 392.337 221.187, 392.225 216.688, 392.145 213.250 C 391.971 205.741, 389.978 204.765, 388.060 211.250 C 386.828 215.414, 384.450 219, 382.919 219 C 382.495 219, 383.240 216.215, 384.574 212.810 C 388.143 203.703, 387.560 202.101, 382 205.742 M 398.250 206.662 C 397.368 207.018, 397 210.086, 397 217.083 C 397 226.954, 397.011 227, 399.462 227 C 403.024 227, 413.168 223.005, 412.755 221.765 C 412.028 219.583, 401.457 206.092, 400.500 206.124 C 399.950 206.143, 398.938 206.385, 398.250 206.662 M 250.485 211.048 C 248.924 215.965, 249.230 216, 294.051 216 C 330.723 216, 336.050 215.807, 337.429 214.429 C 338.293 213.564, 339 212.529, 339 212.129 C 339 209.212, 335.945 209, 293.867 209 C 251.679 209, 251.126 209.026, 250.485 211.048 M 133.781 212.700 L 128.062 214.201 129.958 217.917 C 133.383 224.631, 134.241 224.687, 138.916 218.495 C 144.714 210.816, 144.005 210.016, 133.781 212.700 M 158.512 211.980 C 157.798 213.136, 164.702 224, 166.152 224 C 167.600 224, 172.365 215.959, 171.410 215.128 C 170.909 214.693, 168.541 213.779, 166.146 213.097 C 163.751 212.415, 161.209 211.634, 160.497 211.360 C 159.785 211.087, 158.892 211.366, 158.512 211.980 M 370.490 213.016 C 370.144 213.575, 369.443 213.774, 368.931 213.457 C 367.505 212.576, 367.825 213.610, 369.378 214.899 C 370.460 215.797, 370.869 215.609, 371.284 214.021 C 371.855 211.839, 371.497 211.386, 370.490 213.016 M 141.304 220.497 C 136.742 226.313, 136.837 226.813, 142.899 228.855 C 148.808 230.845, 149 230.664, 149 223.107 C 149 217.744, 148.649 216.079, 147.418 215.607 C 145.453 214.853, 146.200 214.256, 141.304 220.497 M 152.688 215.646 C 152.309 216.024, 152 219.408, 152 223.167 C 152 228.533, 152.318 230, 153.480 230 C 155.160 230, 163 227.004, 163 226.362 C 163 225.691, 154.856 215.529, 154.079 215.229 C 153.692 215.080, 153.066 215.268, 152.688 215.646"/>
  <g id="air-cuts" fill="none" stroke="black" stroke-linecap="round" stroke-linejoin="round">
    <path d="M265 43.7 C298 37.1 353 36.5 390.8 43.4" stroke-width="2.25"/>
    <path d="M284.5 52.0 C302.0 49.9 330.8 49.9 348.1 52.1" stroke-width="1.55"/>
    <path d="M357.2 47.0 C378.7 52.2 389.6 69.4 385.8 86.5 C382.9 99.5 371.5 106.6 358.0 110.0" stroke-width="1.55"/>
    <path d="M282.2 119.0 L349.0 119.0" stroke-width="2.0"/>
    <path d="M282.0 176.3 C305.0 176.8 323.6 174.6 334.0 164.0" stroke-width="1.45"/>
    <path d="M151.5 116.0 C177.5 114.7 209.5 114.9 236.5 115.9" stroke-width="2.0"/>
    <path d="M155.5 123.8 C181.8 123.2 212.9 123.2 237.0 124.0" stroke-width="1.35"/>
    <path stroke-width="1.55" d="M160.8 132.8 C160.10000000000002 141 160.3 154.2 160.8 163.2"/>
    <path stroke-width="1.55" d="M170.8 132.8 C170.10000000000002 141 170.3 154.2 170.8 163.2"/>
    <path stroke-width="1.55" d="M180.8 132.8 C180.10000000000002 141 180.3 154.2 180.8 163.2"/>
    <path stroke-width="1.55" d="M190.2 132.8 C189.5 141 189.7 154.2 190.2 163.2"/>
    <path stroke-width="1.55" d="M199.8 132.8 C199.10000000000002 141 199.3 154.2 199.8 163.2"/>
    <path stroke-width="1.55" d="M209.6 132.8 C208.9 141 209.1 154.2 209.6 163.2"/>
    <path stroke-width="1.55" d="M218.8 132.8 C218.10000000000002 141 218.3 154.2 218.8 163.2"/>
    <path stroke-width="1.55" d="M228.2 132.8 C227.5 141 227.7 154.2 228.2 163.2"/>
    <path d="M243.0 113.0 C242.1 131.5 242.0 154.8 242.9 173.2" stroke-width="1.25"/>
    <path d="M274.5 119.0 C275.1 132.8 275.0 146.0 274.0 158.5" stroke-width="1.35"/>
    <path d="M248.5 184.0 C274.5 182.8 305.5 182.8 328.7 183.3" stroke-width="1.75"/>
    <path d="M250.0 210.9 C279.5 212.1 310.1 212.0 338.0 211.0" stroke-width="2.0"/>
    <path d="M86.0 240.8 C188.0 244.4 351.5 243.6 468.0 241.3" stroke-width="1.2" opacity="0.55"/>
  </g>
  <path id="rear-wheel-burr-cleanup" fill="black" d="M366.7 212.4 C368.9 212.8 371.1 214.9 371.0 217.5 C370.1 219.0 368.1 219.1 366.8 217.7 C365.6 216.0 365.7 213.8 366.7 212.4Z"/>
    </mask>
  </defs>
  <g id="lamp-rays" fill="none" stroke="#d2b062" stroke-linecap="round" stroke-linejoin="round">
    <path d="M55.5 119.5 C68.5 124.8 82.8 131.2 95.2 137.2" stroke-width="1.55" opacity="0.72"/>
    <path d="M49.2 135.8 C63.6 136.6 78.3 138.1 94.6 140.0" stroke-width="1.45" opacity="0.72"/>
    <path d="M53.3 149.1 C66.9 147.0 81.3 145.5 95.0 144.1" stroke-width="1.45" opacity="0.72"/>
    <path d="M57.7 164.0 C70.0 158.9 82.9 153.9 95.4 149.9" stroke-width="1.55" opacity="0.72"/>
  </g>
  <ellipse cx="108.8" cy="141.3" rx="3.8" ry="14.8" fill="#d2b062" opacity="0.86"/>
  <rect width="489" height="304" fill="#f2f1ea" mask="url(#bodyMask)"/>
</svg>
