<svg xmlns="http://www.w3.org/2000/svg" viewBox="0 0 489 304" role="img" aria-label="GSYEN vintage carriage logo - 14 modular structures study">
  <title>GSYEN vintage carriage logo - 14 modular structures study</title>
  <defs>
    <style>
      .ink { fill:#171716; }
      .cut { fill:none; stroke:#f4f2ee; stroke-linecap:round; stroke-linejoin:round; }
      .gold { fill:none; stroke:#c09f5c; stroke-linecap:round; stroke-linejoin:round; }
      .gold-fill { fill:#c09f5c; }
    </style>
    <symbol id="wheel-clean-r4" viewBox="0 0 240 240">
      <defs>
        <mask id="wheel-clean-r4-mask" maskUnits="userSpaceOnUse" x="0" y="0" width="240" height="240" style="mask-type:luminance">
          <rect width="240" height="240" fill="black"/>
          <circle cx="120" cy="120" r="92" fill="white"/>
          <circle cx="120" cy="120" r="69" fill="black"/>
          <circle cx="120" cy="120" r="61" fill="white"/>
          <circle cx="120" cy="120" r="57" fill="none" stroke="black" stroke-width="3.2"/>
          <g fill="black">
            <path d="M117.82 96.10 C113.63 81.52 110.98 67.77 110.98 67.77 Q120.00 63.00 129.02 67.77 C129.02 67.77 126.37 81.52 122.18 96.10 Q120.00 98.00 117.82 96.10Z"/>
            <path d="M132.29 99.38 C137.46 85.13 143.40 72.45 143.40 72.45 Q153.50 73.89 158.00 83.05 C158.00 83.05 147.77 92.62 135.81 101.94 Q132.93 102.20 132.29 99.38Z"/>
            <path d="M142.06 110.55 C154.62 102.05 166.88 95.28 166.88 95.28 Q174.21 102.39 172.46 112.44 C172.46 112.44 158.56 114.17 143.40 114.68 Q140.92 113.20 142.06 110.55Z"/>
            <path d="M143.40 125.32 C158.56 125.83 172.46 127.56 172.46 127.56 Q174.21 137.61 166.88 144.72 C166.88 144.72 154.62 137.95 142.06 129.45 Q140.92 126.80 143.40 125.32Z"/>
            <path d="M135.81 138.06 C147.77 147.38 158.00 156.95 158.00 156.95 Q153.50 166.11 143.40 167.55 C143.40 167.55 137.46 154.87 132.29 140.62 Q132.93 137.80 135.81 138.06Z"/>
            <path d="M122.18 143.90 C126.37 158.48 129.02 172.23 129.02 172.23 Q120.00 177.00 110.98 172.23 C110.98 172.23 113.63 158.48 117.82 143.90 Q120.00 142.00 122.18 143.90Z"/>
            <path d="M107.71 140.62 C102.54 154.87 96.60 167.55 96.60 167.55 Q86.50 166.11 82.00 156.95 C82.00 156.95 92.23 147.38 104.19 138.06 Q107.07 137.80 107.71 140.62Z"/>
            <path d="M97.94 129.45 C85.38 137.95 73.12 144.72 73.12 144.72 Q65.79 137.61 67.54 127.56 C67.54 127.56 81.44 125.83 96.60 125.32 Q99.08 126.80 97.94 129.45Z"/>
            <path d="M96.60 114.68 C81.44 114.17 67.54 112.44 67.54 112.44 Q65.79 102.39 73.12 95.28 C73.12 95.28 85.38 102.05 97.94 110.55 Q99.08 113.20 96.60 114.68Z"/>
            <path d="M104.19 101.94 C92.23 92.62 82.00 83.05 82.00 83.05 Q86.50 73.89 96.60 72.45 C96.60 72.45 102.54 85.13 107.71 99.38 Q107.07 102.20 104.19 101.94Z"/>
          </g>
          <circle cx="120" cy="120" r="22" fill="white"/>
          <circle cx="120" cy="120" r="14" fill="black"/>
          <circle cx="120" cy="120" r="7.8" fill="white"/>
        </mask>
      </defs>
      <rect width="240" height="240" fill="#171716" mask="url(#wheel-clean-r4-mask)"/>
    </symbol>
  </defs>

  <g id="lamp-rays" class="gold" stroke-width="1.55">
    <path d="M54 120 C68 126 82 132 97 140"/>
    <path d="M49 136 C65 137 80 139 97 142"/>
    <path d="M52 150 C68 148 83 146 98 144"/>
    <path d="M57 164 C70 158 84 152 98 147"/>
  </g>

  <g id="ground-line" class="ink">
    <path d="M86 241 C179 238 351 238 458 241 C462 241 462 244 458 245 C350 247 178 247 86 245 C82 244 82 242 86 241Z"/>
  </g>

  <g id="front-wheel" transform="translate(106.8 163.8) scale(.36)">
    <use href="#wheel-clean-r4"/>
  </g>

  <g id="rear-wheel" transform="translate(338.6 136.6) scale(.47)">
    <use href="#wheel-clean-r4"/>
  </g>

  <g id="front-fender" class="ink">
    <path d="M101 173 C119 154 151 151 179 162 C196 169 211 186 226 200 C207 201 193 191 181 180 C169 169 153 165 135 167 C120 169 109 176 101 187Z"/>
  </g>

  <g id="rear-fender" class="ink">
    <path d="M342 174 C355 144 381 128 414 130 C435 131 452 140 464 154 C466 157 464 160 461 161 C449 163 438 154 421 149 C393 141 367 153 355 183 C350 196 350 206 347 216 L334 216 C334 202 337 187 342 174Z"/>
  </g>

  <g id="front-lamp">
    <path class="ink" d="M91 128 C100 122 113 126 118 138 C121 148 115 157 104 158 C95 159 89 152 88 144 C87 137 88 132 91 128Z"/>
    <ellipse class="gold-fill" cx="97" cy="143" rx="5" ry="15.5"/>
    <path class="cut" d="M105 130 C112 137 112 148 105 155" stroke-width="2"/>
    <path class="ink" d="M95 157 L89 171 C88 174 91 176 95 174 L104 164Z"/>
  </g>

  <g id="engine-hood" class="ink">
    <path d="M140 119 C144 108 153 103 166 103 C194 103 220 105 245 108 L249 165 C211 166 174 165 137 163 L137 132 C137 126 138 122 140 119Z"/>
    <rect x="163" y="96" width="31" height="6" rx="3"/>
    <rect x="171" y="88" width="14" height="8" rx="3"/>
    <rect x="250" y="103" width="14" height="64" rx="7"/>
  </g>

  <g id="radiator-lines" class="cut" stroke-width="1.75">
    <path d="M151 115 C177 113 217 114 241 116"/>
    <path d="M151 127 C178 126 217 127 241 129"/>
    <path d="M160 135 C159 146 159 155 160 162"/>
    <path d="M172 134 C171 146 171 157 172 164"/>
    <path d="M184 134 C183 147 183 158 184 164"/>
    <path d="M197 134 C196 147 196 158 197 164"/>
    <path d="M210 135 C209 147 209 158 210 164"/>
    <path d="M223 136 C222 146 222 156 223 162"/>
  </g>

  <g id="chassis-step" class="ink">
    <path d="M187 176 C218 178 250 178 279 176 L279 197 C257 198 236 198 218 197 C205 193 195 185 187 176Z"/>
    <rect x="192" y="217" width="29" height="7" rx="3"/>
    <rect x="238" y="224" width="108" height="9" rx="4"/>
    <rect x="269" y="209" width="54" height="8" rx="1"/>
  </g>

  <g id="cabin-shell" class="ink">
    <path d="M277 44 C310 37 373 38 405 49 C411 51 411 57 406 61 C404 91 404 114 405 136 L354 140 C331 138 304 138 277 139 C276 104 276 74 277 44Z"/>
    <rect x="269" y="72" width="13" height="112" rx="5"/>
    <rect x="354" y="65" width="12" height="116" rx="5"/>
  </g>

  <g id="window-frame" class="cut" stroke-width="2.05">
    <path d="M289 55 C319 51 371 53 400 62"/>
    <path d="M288 68 C315 65 347 66 369 71"/>
    <path d="M369 68 C396 80 400 110 369 127"/>
    <path d="M280 139 L404 136"/>
    <path d="M281 49 C282 80 282 110 281 138"/>
  </g>

  <g id="door-panel" class="ink">
    <path d="M276 141 L360 141 C358 166 344 182 323 188 C307 192 290 192 276 191Z"/>
    <rect x="323" y="156" width="18" height="4.5" rx="2" fill="#f4f2ee"/>
    <path class="cut" d="M277 190 C303 191 335 190 351 180" stroke-width="1.9"/>
    <path class="cut" d="M276 140 C275 160 275 178 276 191" stroke-width="1.9"/>
  </g>

  <g id="steering-wheel" class="ink">
    <path d="M263 142 C280 124 291 108 303 94 L308 99 C297 116 282 134 268 151Z"/>
    <ellipse cx="310" cy="92" rx="18" ry="5.5" transform="rotate(43 310 92)"/>
    <circle cx="306" cy="96" r="2.7" fill="#f4f2ee"/>
    <path d="M300 100 L320 86 L323 90 L303 104Z"/>
  </g>

  <g id="small-details" class="cut" stroke-width="1.8">
    <path d="M214 184 C236 183 260 183 281 184"/>
    <path d="M218 196 C232 196 245 196 259 196"/>
    <path d="M208 205 C219 205 230 205 241 205"/>
    <path d="M258 211 L258 224"/>
  </g>
</svg>
