<svg xmlns="http://www.w3.org/2000/svg" viewBox="0 0 240 240" role="img" aria-label="GSYEN clean R4 style wheel study">
  <title>GSYEN clean R4 style wheel study</title>
  <defs>
    <mask id="wheelMask" maskUnits="userSpaceOnUse" x="0" y="0" width="240" height="240" style="mask-type:luminance">
      <rect width="240" height="240" fill="black"/>
      <circle cx="120" cy="120" r="92" fill="white"/>
      <circle cx="120" cy="120" r="69" fill="black"/>
      <circle cx="120" cy="120" r="61" fill="white"/>
      <circle cx="120" cy="120" r="57" fill="none" stroke="black" stroke-width="3.2"/>
      <g fill="black" stroke="none">
      <path d="M117.82 96.10 C113.63 81.52 110.98 67.77 110.98 67.77 Q120.00 63.00 129.02 67.77 C129.02 67.77 126.37 81.52 122.18 96.10 Q120.00 98.00 117.82 96.10Z"/>
      <path d="M132.29 99.38 C137.46 85.13 143.40 72.45 143.40 72.45 Q153.50 73.89 158.00 83.05 C158.00 83.05 147.77 92.62 135.81 101.94 Q132.93 102.20 132.29 99.38Z"/>
      <path d="M142.06 110.55 C154.62 102.05 166.88 95.28 166.88 95.28 Q174.21 102.39 172.46 112.44 C172.46 112.44 158.56 114.17 143.40 114.68 Q140.92 113.20 142.06 110.55Z"/>
      <path d="M143.40 125.32 C158.56 125.83 172.46 127.56 172.46 127.56 Q174.21 137.61 166.88 144.72 C166.88 144.72 154.62 137.95 142.06 129.45 Q140.92 126.80 143.40 125.32Z"/>
      <path d="M135.81 138.06 C147.77 147.38 158.00 156.95 158.00 156.95 Q153.50 166.11 143.40 167.55 C143.40 167.55 137.46 154.87 132.29 140.62 Q132.93 137.80 135.81 138.06Z"/>
      <path d="M122.18 143.90 C126.37 158.48 129.02 172.23 129.02 172.23 Q120.00 177.00 110.98 172.23 C110.98 172.23 113.63 158.48 117.82 143.90 Q120.00 142.00 122.18 143.90Z"/>
      <path d="M107.71 140.62 C102.54 154.87 96.60 167.55 96.60 167.55 Q86.50 166.11 82.00 156.95 C82.00 156.95 92.23 147.38 104.19 138.06 Q107.07 137.80 107.71 140.62Z"/>
      <path d="M97.94 129.45 C85.38 137.95 73.12 144.72 73.12 144.72 Q65.79 137.61 67.54 127.56 C67.54 127.56 81.44 125.83 96.60 125.32 Q99.08 126.80 97.94 129.45Z"/>
      <path d="M96.60 114.68 C81.44 114.17 67.54 112.44 67.54 112.44 Q65.79 102.39 73.12 95.28 C73.12 95.28 85.38 102.05 97.94 110.55 Q99.08 113.20 96.60 114.68Z"/>
      <path d="M104.19 101.94 C92.23 92.62 82.00 83.05 82.00 83.05 Q86.50 73.89 96.60 72.45 C96.60 72.45 102.54 85.13 107.71 99.38 Q107.07 102.20 104.19 101.94Z"/>
      </g>
      <circle cx="120" cy="120" r="22" fill="white"/>
      <circle cx="120" cy="120" r="14" fill="black"/>
      <circle cx="120" cy="120" r="7.8" fill="white"/>
    </mask>
  </defs>
  <rect width="240" height="240" fill="#171716" mask="url(#wheelMask)"/>
</svg>
