<svg xmlns="http://www.w3.org/2000/svg" viewBox="0 0 240 240" role="img" aria-label="GSYEN wheel study 04 - bold soft tire">
  <title>GSYEN wheel study 04 - bold soft tire</title>
  <defs>
    <mask id="wheel04Mask" maskUnits="userSpaceOnUse" x="0" y="0" width="240" height="240" style="mask-type:luminance">
      <rect width="240" height="240" fill="black"/>
      <circle cx="120" cy="120" r="93" fill="white"/>
      <circle cx="120" cy="120" r="67.5" fill="black"/>
      <circle cx="120" cy="120" r="60" fill="white"/>
      <circle cx="120" cy="120" r="56" fill="none" stroke="black" stroke-width="3.4"/>
      <g fill="black" stroke="none">
        <path d="M85.21 123.84 C63.46 130.48 63.46 130.48 57.70 120.00 C63.46 109.52 63.46 109.52 85.21 116.16 Q89.80 120.00 85.21 123.84Z"/>
        <path d="M89.60 102.66 C68.10 95.25 68.10 95.25 69.60 83.38 C80.42 78.29 80.42 78.29 94.11 96.44 Q95.57 102.25 89.60 102.66Z"/>
        <path d="M105.60 88.10 C92.56 69.47 92.56 69.47 100.75 60.75 C112.49 62.99 112.49 62.99 112.90 85.73 Q110.67 91.28 105.60 88.10Z"/>
        <path d="M127.10 85.73 C127.51 62.99 127.51 62.99 139.25 60.75 C147.44 69.47 147.44 69.47 134.40 88.10 Q129.33 91.28 127.10 85.73Z"/>
        <path d="M145.89 96.44 C159.58 78.29 159.58 78.29 170.40 83.38 C171.90 95.25 171.90 95.25 150.40 102.66 Q144.43 102.25 145.89 96.44Z"/>
        <path d="M154.79 116.16 C176.54 109.52 176.54 109.52 182.30 120.00 C176.54 130.48 176.54 130.48 154.79 123.84 Q150.20 120.00 154.79 116.16Z"/>
        <path d="M150.40 137.34 C171.90 144.75 171.90 144.75 170.40 156.62 C159.58 161.71 159.58 161.71 145.89 143.56 Q144.43 137.75 150.40 137.34Z"/>
        <path d="M134.40 151.90 C147.44 170.53 147.44 170.53 139.25 179.25 C127.51 177.01 127.51 177.01 127.10 154.27 Q129.33 148.72 134.40 151.90Z"/>
        <path d="M112.90 154.27 C112.49 177.01 112.49 177.01 100.75 179.25 C92.56 170.53 92.56 170.53 105.60 151.90 Q110.67 148.72 112.90 154.27Z"/>
        <path d="M94.11 143.56 C80.42 161.71 80.42 161.71 69.60 156.62 C68.10 144.75 68.10 144.75 89.60 137.34 Q95.57 137.75 94.11 143.56Z"/>
      </g>
      <circle cx="120" cy="120" r="23" fill="white"/>
      <circle cx="120" cy="120" r="14.6" fill="black"/>
      <circle cx="120" cy="120" r="8" fill="white"/>
    </mask>
  </defs>
  <rect width="240" height="240" fill="#171716" mask="url(#wheel04Mask)"/>
</svg>
