<svg xmlns="http://www.w3.org/2000/svg" viewBox="0 0 240 240" role="img" aria-label="GSYEN wheel study 02 - R4 rounded clean">
  <title>GSYEN wheel study 02 - R4 rounded clean</title>
  <defs>
    <mask id="wheel02Mask" maskUnits="userSpaceOnUse" x="0" y="0" width="240" height="240" style="mask-type:luminance">
      <rect width="240" height="240" fill="black"/>
      <circle cx="120" cy="120" r="92" fill="white"/>
      <circle cx="120" cy="120" r="68.5" fill="black"/>
      <circle cx="120" cy="120" r="60.5" fill="white"/>
      <circle cx="120" cy="120" r="56.5" fill="none" stroke="black" stroke-width="3"/>
      <g fill="black" stroke="none">
        <path d="M86.16 123.26 C62.80 129.57 62.80 129.57 57.00 120.00 C62.80 110.43 62.80 110.43 86.16 116.74 Q91.00 120.00 86.16 123.26Z"/>
        <path d="M90.70 102.74 C68.09 94.12 68.09 94.12 69.03 82.97 C79.35 78.63 79.35 78.63 94.54 97.47 Q96.54 102.95 90.70 102.74Z"/>
        <path d="M106.44 88.82 C93.22 68.55 93.22 68.55 100.53 60.08 C111.43 62.64 111.43 62.64 112.64 86.81 Q111.04 92.42 106.44 88.82Z"/>
        <path d="M127.36 86.81 C128.57 62.64 128.57 62.64 139.47 60.08 C146.78 68.55 146.78 68.55 133.56 88.82 Q128.96 92.42 127.36 86.81Z"/>
        <path d="M145.46 97.47 C160.65 78.63 160.65 78.63 170.97 82.97 C171.91 94.12 171.91 94.12 149.30 102.74 Q143.46 102.95 145.46 97.47Z"/>
        <path d="M153.84 116.74 C177.20 110.43 177.20 110.43 183.00 120.00 C177.20 129.57 177.20 129.57 153.84 123.26 Q149.00 120.00 153.84 116.74Z"/>
        <path d="M149.30 137.26 C171.91 145.88 171.91 145.88 170.97 157.03 C160.65 161.37 160.65 161.37 145.46 142.53 Q143.46 137.05 149.30 137.26Z"/>
        <path d="M133.56 151.18 C146.78 171.45 146.78 171.45 139.47 179.92 C128.57 177.36 128.57 177.36 127.36 153.19 Q128.96 147.58 133.56 151.18Z"/>
        <path d="M112.64 153.19 C111.43 177.36 111.43 177.36 100.53 179.92 C93.22 171.45 93.22 171.45 106.44 151.18 Q111.04 147.58 112.64 153.19Z"/>
        <path d="M94.54 142.53 C79.35 161.37 79.35 161.37 69.03 157.03 C68.09 145.88 68.09 145.88 90.70 137.26 Q96.54 137.05 94.54 142.53Z"/>
      </g>
      <circle cx="120" cy="120" r="22" fill="white"/>
      <circle cx="120" cy="120" r="13.8" fill="black"/>
      <circle cx="120" cy="120" r="7.6" fill="white"/>
    </mask>
  </defs>
  <rect width="240" height="240" fill="#171716" mask="url(#wheel02Mask)"/>
</svg>
