<svg xmlns="http://www.w3.org/2000/svg" viewBox="0 0 240 240" role="img" aria-label="GSYEN wheel study 03 - airy classic">
  <title>GSYEN wheel study 03 - airy classic</title>
  <defs>
    <mask id="wheel03Mask" maskUnits="userSpaceOnUse" x="0" y="0" width="240" height="240" style="mask-type:luminance">
      <rect width="240" height="240" fill="black"/>
      <circle cx="120" cy="120" r="91" fill="white"/>
      <circle cx="120" cy="120" r="70.5" fill="black"/>
      <circle cx="120" cy="120" r="62" fill="white"/>
      <circle cx="120" cy="120" r="58.5" fill="none" stroke="black" stroke-width="2.7"/>
      <g fill="black" stroke="none">
        <path d="M87.12 122.76 C60.63 128.66 60.63 128.66 54.40 120.00 C60.63 111.34 60.63 111.34 87.12 117.24 Q92.60 120.00 87.12 122.76Z"/>
        <path d="M91.77 102.91 C66.88 92.11 66.88 92.11 66.93 81.44 C77.06 78.10 77.06 78.10 95.02 98.44 Q97.83 103.89 91.77 102.91Z"/>
        <path d="M107.21 89.58 C93.42 66.21 93.42 66.21 99.73 57.61 C109.89 60.86 109.89 60.86 112.46 87.87 Q111.53 93.94 107.21 89.58Z"/>
        <path d="M127.54 87.87 C130.11 60.86 130.11 60.86 140.27 57.61 C146.58 66.21 146.58 66.21 132.79 89.58 Q128.47 93.94 127.54 87.87Z"/>
        <path d="M144.98 98.44 C162.94 78.10 162.94 78.10 173.07 81.44 C173.12 92.11 173.12 92.11 148.23 102.91 Q142.17 103.89 144.98 98.44Z"/>
        <path d="M152.88 117.24 C179.37 111.34 179.37 111.34 185.60 120.00 C179.37 128.66 179.37 128.66 152.88 122.76 Q147.40 120.00 152.88 117.24Z"/>
        <path d="M148.23 137.09 C173.12 147.89 173.12 147.89 173.07 158.56 C162.94 161.90 162.94 161.90 144.98 141.56 Q142.17 136.11 148.23 137.09Z"/>
        <path d="M132.79 150.42 C146.58 173.79 146.58 173.79 140.27 182.39 C130.11 179.14 130.11 179.14 127.54 152.13 Q128.47 146.06 132.79 150.42Z"/>
        <path d="M112.46 152.13 C109.89 179.14 109.89 179.14 99.73 182.39 C93.42 173.79 93.42 173.79 107.21 150.42 Q111.53 146.06 112.46 152.13Z"/>
        <path d="M95.02 141.56 C77.06 161.90 77.06 161.90 66.93 158.56 C66.88 147.89 66.88 147.89 91.77 137.09 Q97.83 136.11 95.02 141.56Z"/>
      </g>
      <circle cx="120" cy="120" r="20.5" fill="white"/>
      <circle cx="120" cy="120" r="13" fill="black"/>
      <circle cx="120" cy="120" r="7.2" fill="white"/>
    </mask>
  </defs>
  <rect width="240" height="240" fill="#171716" mask="url(#wheel03Mask)"/>
</svg>
