<svg xmlns="http://www.w3.org/2000/svg" viewBox="0 0 489 304" role="img" aria-label="GSYEN modular vintage carriage logo skeleton v1">
  <title>GSYEN modular vintage carriage logo skeleton v1</title>
  <defs>
    <style>
      .ink{fill:#171716}.cut{fill:none;stroke:#f4f2ee;stroke-linecap:round;stroke-linejoin:round}.line{fill:none;stroke:#171716;stroke-linecap:round;stroke-linejoin:round}.gold{fill:none;stroke:#c09f5c;stroke-linecap:round;stroke-linejoin:round}.gold-fill{fill:#c09f5c}
    </style>
    <symbol id="wheel-clean-r4" viewBox="0 0 240 240">
      <defs>
        <mask id="wheel-clean-r4-mask" maskUnits="userSpaceOnUse" x="0" y="0" width="240" height="240" style="mask-type:luminance">
          <rect width="240" height="240" fill="black"/>
          <circle cx="120" cy="120" r="92" fill="white"/>
          <circle cx="120" cy="120" r="69" fill="black"/>
          <circle cx="120" cy="120" r="61" fill="white"/>
          <circle cx="120" cy="120" r="57" fill="none" stroke="black" stroke-width="3.2"/>
          <g fill="black">
            <path d="M117.82 96.10 C113.63 81.52 110.98 67.77 110.98 67.77 Q120.00 63.00 129.02 67.77 C129.02 67.77 126.37 81.52 122.18 96.10 Q120.00 98.00 117.82 96.10Z"/>
            <path d="M132.29 99.38 C137.46 85.13 143.40 72.45 143.40 72.45 Q153.50 73.89 158.00 83.05 C158.00 83.05 147.77 92.62 135.81 101.94 Q132.93 102.20 132.29 99.38Z"/>
            <path d="M142.06 110.55 C154.62 102.05 166.88 95.28 166.88 95.28 Q174.21 102.39 172.46 112.44 C172.46 112.44 158.56 114.17 143.40 114.68 Q140.92 113.20 142.06 110.55Z"/>
            <path d="M143.40 125.32 C158.56 125.83 172.46 127.56 172.46 127.56 Q174.21 137.61 166.88 144.72 C166.88 144.72 154.62 137.95 142.06 129.45 Q140.92 126.80 143.40 125.32Z"/>
            <path d="M135.81 138.06 C147.77 147.38 158.00 156.95 158.00 156.95 Q153.50 166.11 143.40 167.55 C143.40 167.55 137.46 154.87 132.29 140.62 Q132.93 137.80 135.81 138.06Z"/>
            <path d="M122.18 143.90 C126.37 158.48 129.02 172.23 129.02 172.23 Q120.00 177.00 110.98 172.23 C110.98 172.23 113.63 158.48 117.82 143.90 Q120.00 142.00 122.18 143.90Z"/>
            <path d="M107.71 140.62 C102.54 154.87 96.60 167.55 96.60 167.55 Q86.50 166.11 82.00 156.95 C82.00 156.95 92.23 147.38 104.19 138.06 Q107.07 137.80 107.71 140.62Z"/>
            <path d="M97.94 129.45 C85.38 137.95 73.12 144.72 73.12 144.72 Q65.79 137.61 67.54 127.56 C67.54 127.56 81.44 125.83 96.60 125.32 Q99.08 126.80 97.94 129.45Z"/>
            <path d="M96.60 114.68 C81.44 114.17 67.54 112.44 67.54 112.44 Q65.79 102.39 73.12 95.28 C73.12 95.28 85.38 102.05 97.94 110.55 Q99.08 113.20 96.60 114.68Z"/>
            <path d="M104.19 101.94 C92.23 92.62 82.00 83.05 82.00 83.05 Q86.50 73.89 96.60 72.45 C96.60 72.45 102.54 85.13 107.71 99.38 Q107.07 102.20 104.19 101.94Z"/>
          </g>
          <circle cx="120" cy="120" r="22" fill="white"/>
          <circle cx="120" cy="120" r="14" fill="black"/>
          <circle cx="120" cy="120" r="7.8" fill="white"/>
        </mask>
      </defs>
      <rect width="240" height="240" fill="#171716" mask="url(#wheel-clean-r4-mask)"/>
    </symbol>
  </defs>

  <g id="lamp-rays" class="gold" stroke-width="1.6">
    <path d="M25 124 C45 130 65 138 84 148"/>
    <path d="M20 141 C42 142 64 144 85 147"/>
    <path d="M25 158 C46 154 66 151 85 149"/>
    <path d="M31 174 C49 166 67 158 86 152"/>
  </g>

  <g id="ground-line" class="ink">
    <path d="M83 247 C174 242 339 242 456 246 C459 246 459 249 456 250 C337 252 174 252 83 250 C79 249 79 248 83 247Z"/>
  </g>

  <g id="wheels">
    <g id="front-wheel" transform="translate(91.0 149.0) scale(.43)"><use href="#wheel-clean-r4"/></g>
    <g id="rear-wheel" transform="translate(294.5 116.5) scale(.62)"><use href="#wheel-clean-r4"/></g>
  </g>

  <g id="front-fender" class="ink">
    <path d="M90 174 C112 150 153 148 186 162 C202 169 222 195 237 205 C221 209 203 204 187 194 C171 184 164 171 141 166 C118 161 103 168 90 184Z"/>
  </g>

  <g id="rear-fender" class="ink">
    <path d="M336 181 C348 146 376 126 414 127 C435 128 455 136 468 151 C470 154 469 158 466 159 C454 163 440 150 420 144 C392 136 365 147 353 178 C348 190 348 204 346 213 L333 213 C333 200 333 190 336 181Z"/>
  </g>

  <g id="running-board" class="ink">
    <rect x="235" y="222" width="128" height="10" rx="4"/>
    <rect x="203" y="205" width="150" height="7" rx="3"/>
  </g>

  <g id="engine-hood" class="ink">
    <path d="M131 119 C135 105 145 99 161 99 C190 99 219 101 246 104 L250 165 C212 166 173 165 132 164Z"/>
    <rect x="160" y="92" width="36" height="7" rx="4"/>
    <rect x="169" y="84" width="17" height="9" rx="3"/>
    <rect x="252" y="98" width="16" height="71" rx="7"/>
  </g>

  <g id="radiator-lines" class="cut" stroke-width="2.1">
    <path d="M145 113 C174 111 215 112 241 115"/>
    <path d="M145 126 C174 125 215 126 241 128"/>
    <path d="M157 134 C156 145 156 154 157 162"/>
    <path d="M171 133 C170 146 170 157 171 165"/>
    <path d="M185 132 C184 147 184 159 185 166"/>
    <path d="M199 132 C198 147 198 159 199 166"/>
    <path d="M213 133 C212 147 212 159 213 166"/>
    <path d="M227 134 C226 146 226 156 227 164"/>
  </g>

  <g id="front-lamp">
    <path class="ink" d="M90 129 C99 122 113 125 118 138 C121 148 115 157 104 159 C94 160 88 153 87 144 C86 138 87 133 90 129Z"/>
    <ellipse class="gold-fill" cx="96" cy="143" rx="5" ry="17"/>
    <path class="cut" d="M104 130 C112 137 113 148 105 156" stroke-width="2"/>
    <path class="ink" d="M94 158 L88 173 C87 176 90 178 94 176 L104 165Z"/>
  </g>

  <g id="cabin-frame" class="ink">
    <path d="M292 43 C324 36 390 39 423 51 C428 53 428 59 424 62 C420 104 420 119 421 136 L372 140 C350 137 326 136 296 138 C293 103 292 72 292 43Z"/>
    <rect x="284" y="72" width="16" height="117" rx="5"/>
    <rect x="365" y="67" width="14" height="118" rx="5"/>
  </g>

  <g id="cabin-cuts" class="cut" stroke-width="2.4">
    <path d="M306 56 C335 52 377 54 402 64"/>
    <path d="M305 68 C329 65 361 66 383 71"/>
    <path d="M383 68 C406 79 411 112 380 128"/>
    <path d="M297 139 L420 136"/>
    <path d="M300 48 C301 80 301 111 300 138"/>
  </g>

  <g id="door" class="ink">
    <path d="M287 141 L374 141 C374 167 359 186 337 192 C320 196 300 196 286 195Z"/>
    <rect x="330" y="158" width="22" height="5" rx="2" fill="#f4f2ee"/>
  </g>

  <g id="door-cuts" class="cut" stroke-width="2.2">
    <path d="M286 194 C311 195 342 195 360 184"/>
    <path d="M286 140 C285 162 285 181 286 195"/>
  </g>

  <g id="steering-wheel" class="ink">
    <path d="M280 139 C298 121 307 110 319 95 L325 100 C314 116 300 133 285 150Z"/>
    <ellipse cx="326" cy="94" rx="21" ry="6" transform="rotate(43 326 94)"/>
    <circle cx="322" cy="98" r="3" fill="#f4f2ee"/>
    <path d="M315 102 L337 86 L340 91 L318 106Z"/>
  </g>

  <g id="chassis-and-step" class="ink">
    <path d="M186 177 C217 178 253 178 286 176 L286 197 C268 198 246 198 224 197 C208 194 195 187 186 177Z"/>
    <rect x="180" y="219" width="38" height="9" rx="3"/>
    <rect x="265" y="211" width="60" height="9" rx="1"/>
  </g>

  <g id="side-detail-cuts" class="cut" stroke-width="2.1">
    <path d="M221 184 C244 183 270 183 292 184"/>
    <path d="M223 198 C239 198 254 198 270 198"/>
    <path d="M213 207 C224 207 236 207 247 207"/>
    <path d="M261 213 L261 227"/>
  </g>
</svg>